<?xml version="1.0" standalone="no"?>
<!DOCTYPE svg PUBLIC "-//W3C//DTD SVG 20010904//EN"
 "http://www.w3.org/TR/2001/REC-SVG-20010904/DTD/svg10.dtd">
<svg version="1.0" xmlns="http://www.w3.org/2000/svg"
 width="1840.000000pt" height="1840.000000pt" viewBox="0 0 1840.000000 1840.000000"
 preserveAspectRatio="xMidYMid meet">
<metadata>
Created by potrace 1.14, written by Peter Selinger 2001-2017
</metadata>
<g transform="translate(0.000000,1840.000000) scale(0.100000,-0.100000)"
fill="#000000" stroke="none">
<path d="M15090 12077 c3 -3 41 -8 85 -11 45 -3 103 -9 130 -12 55 -7 102 -12
155 -18 19 -2 62 -8 95 -14 33 -6 77 -14 99 -17 21 -3 41 -7 45 -10 4 -2 25
-6 47 -9 42 -6 79 -13 79 -16 0 -1 13 -4 28 -6 105 -17 298 -98 447 -187 202
-121 426 -311 508 -432 15 -22 29 -42 32 -45 5 -5 34 -49 83 -127 15 -24 27
-45 27 -49 0 -3 9 -19 21 -35 11 -16 17 -29 14 -29 -3 0 2 -12 13 -27 11 -16
23 -39 27 -53 4 -14 15 -33 24 -44 9 -10 15 -21 14 -25 0 -3 7 -24 17 -46 38
-86 92 -218 91 -223 -1 -1 6 -16 14 -32 9 -17 13 -30 9 -30 -4 0 -2 -6 4 -12
11 -15 85 -238 102 -308 6 -25 15 -61 20 -80 12 -45 48 -215 55 -260 3 -19 8
-46 10 -60 3 -14 7 -38 10 -55 2 -16 6 -47 9 -67 9 -61 14 -99 21 -163 4 -33
8 -76 11 -95 24 -195 24 -901 0 -1025 -2 -11 -7 -45 -10 -76 -4 -31 -9 -67
-11 -80 -3 -13 -8 -40 -11 -59 -3 -19 -12 -67 -20 -106 -9 -39 -17 -79 -19
-90 -2 -10 -4 -19 -5 -19 -1 0 -3 -7 -5 -15 -1 -8 -8 -35 -15 -60 -7 -25 -13
-52 -15 -60 -7 -33 -60 -191 -100 -296 -49 -127 -169 -366 -202 -402 -7 -7
-13 -17 -13 -21 0 -4 -8 -16 -18 -27 -10 -11 -27 -33 -38 -49 -34 -53 -200
-228 -296 -312 -78 -68 -338 -227 -389 -237 -8 -2 -21 -6 -29 -9 -17 -6 -114
-36 -200 -61 -30 -9 -66 -18 -80 -20 -14 -3 -26 -5 -27 -7 -3 -2 -7 -3 -53
-12 -19 -4 -46 -10 -60 -13 -212 -46 -438 -68 -682 -65 -102 1 -148 -2 -148
-10 0 -13 572 -3 825 15 44 3 123 8 175 11 298 17 319 19 475 46 48 9 217 50
260 63 6 2 13 4 17 5 4 1 58 20 120 42 62 22 127 44 143 49 40 13 286 137 306
156 8 8 20 14 25 14 8 1 58 36 159 112 134 102 284 264 396 428 24 36 47 67
52 68 4 2 7 10 7 17 0 8 6 20 13 27 18 19 52 80 110 198 51 104 62 129 87 200
6 19 16 44 20 55 65 162 152 469 166 581 2 23 7 53 9 65 9 43 19 124 32 254
16 164 8 636 -13 751 -3 16 -7 47 -8 69 -2 22 -6 51 -9 65 -4 14 -8 44 -11 67
-4 34 -31 160 -61 288 -1 6 -4 17 -7 25 -5 14 -34 113 -43 150 -32 128 -167
451 -248 596 -34 60 -155 244 -166 254 -4 3 -22 25 -41 50 -52 69 -95 117
-185 210 -84 87 -139 135 -270 238 -37 29 -153 105 -220 145 -44 26 -87 52
-95 57 -49 30 -267 130 -284 130 -8 0 -18 5 -21 10 -3 6 -16 10 -29 10 -12 0
-26 3 -30 8 -4 4 -12 8 -17 8 -5 1 -11 3 -14 4 -3 1 -8 3 -12 5 -5 1 -15 5
-23 8 -16 7 -120 35 -159 43 -12 3 -53 12 -90 20 -36 9 -79 18 -96 20 -16 3
-50 9 -75 14 -42 9 -145 23 -256 36 -27 3 -62 7 -79 9 -16 2 -77 7 -135 10
-58 4 -121 9 -140 11 -63 6 -465 16 -460 11z"/>
<path d="M13996 12013 c-1 -1 -51 -5 -112 -8 -60 -3 -136 -7 -169 -10 -33 -2
-105 -6 -160 -10 -55 -3 -127 -8 -160 -10 -33 -2 -98 -7 -145 -10 -47 -3 -116
-8 -155 -11 -38 -3 -95 -7 -125 -9 -30 -2 -95 -6 -145 -10 -49 -4 -110 -8
-135 -10 -42 -3 -192 -14 -270 -20 -19 -2 -45 -4 -58 -4 -14 -1 -22 -6 -20
-13 3 -8 34 -11 104 -9 196 5 220 4 289 -3 39 -5 79 -10 90 -12 11 -2 34 -7
50 -10 122 -22 223 -61 271 -106 41 -39 97 -138 108 -193 13 -62 14 -73 21
-151 4 -43 8 -97 10 -119 18 -184 27 -3670 11 -4065 -19 -462 -34 -557 -108
-672 -51 -80 -101 -114 -238 -160 -140 -48 -184 -53 -460 -50 -58 1 -112 1
-120 0 -8 0 -21 1 -29 3 -7 2 -16 -2 -18 -8 -4 -10 182 -13 909 -13 l914 0 -1
2848 0 2847 -73 0 c-41 0 -75 -1 -76 -2z"/>
<path d="M10 11922 c-6 -2 -10 -8 -10 -12 0 -5 55 -9 123 -10 287 -3 420 -20
602 -78 119 -37 204 -90 291 -178 87 -88 107 -122 227 -389 25 -55 57 -126 71
-157 14 -32 38 -84 52 -115 122 -269 168 -370 203 -446 23 -49 41 -90 41 -92
0 -3 16 -37 35 -77 20 -40 36 -74 36 -75 0 -3 40 -93 79 -178 31 -67 52 -114
55 -125 1 -3 14 -32 29 -65 67 -141 106 -226 106 -230 0 -1 19 -43 41 -92 23
-48 59 -126 79 -173 40 -90 86 -192 125 -275 24 -53 26 -56 167 -370 50 -110
108 -238 129 -283 22 -46 39 -85 39 -87 0 -2 18 -41 39 -87 21 -45 80 -175
130 -288 51 -113 101 -222 112 -242 11 -21 17 -38 13 -38 -4 0 0 -8 8 -17 8
-10 22 -36 30 -58 14 -35 42 -97 108 -240 80 -173 100 -217 100 -220 0 -2 20
-46 44 -97 24 -51 58 -127 76 -168 18 -41 48 -109 67 -150 45 -96 76 -164 78
-170 1 -3 9 -22 18 -42 10 -21 17 -42 17 -48 0 -5 5 -10 10 -10 6 0 10 -6 10
-14 0 -8 7 -27 15 -43 8 -15 28 -58 45 -95 l30 -68 101 0 100 0 24 54 c13 30
42 93 64 141 23 48 41 88 41 90 0 1 20 45 44 96 55 119 89 193 91 199 0 3 11
26 23 52 23 48 39 65 27 28 -13 -41 22 -20 45 28 14 26 25 49 25 52 1 7 24 58
70 155 90 193 99 214 182 395 14 30 48 102 74 159 27 57 49 105 49 107 0 2 22
50 49 106 54 115 86 185 126 273 15 33 46 98 68 145 22 47 41 87 42 90 0 3 12
30 27 60 14 30 49 107 78 170 29 63 72 157 96 208 48 100 51 112 31 112 -11 0
-55 -71 -60 -97 0 -4 -18 -43 -39 -86 -21 -43 -38 -79 -38 -82 0 -2 -17 -39
-37 -82 -20 -43 -37 -80 -38 -83 -1 -3 -19 -41 -40 -85 -21 -44 -39 -82 -40
-85 -1 -3 -12 -27 -25 -55 -13 -27 -24 -52 -25 -55 -1 -5 -26 -59 -90 -195
-48 -103 -104 -222 -130 -280 -15 -33 -40 -87 -55 -120 -54 -118 -92 -201
-123 -265 -17 -36 -31 -67 -32 -70 0 -3 -18 -41 -39 -85 -20 -44 -49 -107 -64
-140 -15 -33 -39 -84 -53 -113 l-26 -54 -13 34 c-7 18 -28 65 -45 103 -18 39
-42 93 -55 120 -12 28 -33 74 -46 103 -13 28 -35 76 -48 105 -13 28 -40 88
-61 132 -20 44 -38 85 -40 90 -2 9 -22 54 -98 215 -11 25 -22 47 -22 50 -3 9
-36 83 -65 145 -16 33 -48 105 -73 160 -25 55 -61 136 -82 180 -35 76 -57 124
-60 135 -1 3 -14 32 -29 65 -76 163 -96 207 -96 210 0 1 -22 51 -50 109 -27
58 -50 108 -50 110 0 2 -20 46 -43 98 -24 51 -61 131 -82 178 -20 47 -57 127
-81 178 -24 51 -44 95 -44 97 0 3 -18 43 -40 89 -36 78 -71 154 -75 166 -5 13
-41 93 -81 178 -24 51 -44 95 -44 97 0 3 -15 35 -33 72 -18 38 -44 96 -57 131
-14 34 -28 62 -32 62 -5 0 -8 6 -8 14 0 8 -7 27 -15 43 -8 15 -29 60 -46 98
-17 39 -41 93 -54 120 -13 28 -44 97 -70 155 -78 174 -86 192 -121 267 -19 39
-34 73 -34 76 0 3 -21 50 -46 104 -25 54 -62 132 -81 173 -19 41 -36 80 -38
85 -1 6 -13 35 -27 65 -14 30 -40 87 -58 125 -73 159 -81 174 -98 174 -75 1
-135 1 -180 -1 -28 -2 -52 -1 -52 2 0 5 -109 3 -170 -3 -14 -1 -37 1 -52 5
-17 4 -28 3 -28 -3 0 -6 -5 -7 -11 -3 -11 6 -62 7 -167 2 -28 -2 -52 -1 -52 2
0 5 -109 3 -170 -3 -14 -1 -37 1 -52 5 -17 4 -28 3 -28 -3 0 -6 -5 -7 -11 -3
-11 6 -62 7 -167 2 -28 -2 -52 -1 -52 2 0 5 -116 2 -170 -3 -14 -2 -37 0 -52
4 -16 4 -28 4 -28 -1 0 -5 -7 -7 -15 -4 -16 6 -279 11 -295 6z"/>
<path d="M9039 11926 c-1 -3 -2 -21 -3 -38 -2 -40 18 -58 53 -49 30 8 309 6
361 -2 19 -3 54 -8 77 -11 23 -4 52 -10 65 -15 13 -5 25 -9 28 -9 29 -1 96
-28 122 -50 91 -75 129 -140 143 -244 3 -24 7 -59 10 -78 23 -175 35 -380 33
-600 0 -85 -2 -900 -3 -1810 -2 -910 -3 -1655 -4 -1655 -1 0 -4 -56 -6 -125
-3 -69 -7 -143 -9 -165 -6 -48 -19 -193 -20 -217 0 -10 -4 -18 -9 -18 -4 0 -6
-4 -2 -9 9 -16 -48 -153 -79 -188 -6 -6 -22 -28 -36 -47 -27 -38 -152 -108
-215 -120 -11 -2 -33 -9 -49 -15 -43 -17 -276 -62 -286 -56 -5 3 -11 1 -14 -4
-4 -5 -18 -6 -34 -2 -15 5 -36 5 -47 1 -11 -4 -32 -4 -47 1 -32 9 -35 6 -34
-41 l1 -35 1321 -3 1322 -2 4 30 c3 17 0 34 -6 39 -15 11 -66 20 -66 11 0 -4
-18 -4 -39 0 -22 4 -44 4 -49 1 -13 -8 -165 -6 -222 3 -81 12 -151 29 -156 38
-3 4 -14 8 -24 8 -64 0 -202 102 -241 177 -8 16 -17 30 -20 33 -7 5 -38 92
-44 122 -3 15 -12 92 -20 180 -17 176 -20 559 -20 2198 0 1678 4 2065 19 2160
3 14 7 54 11 89 8 91 22 145 49 200 34 66 112 147 152 156 11 3 46 12 79 20
205 54 308 65 515 56 80 -3 89 2 82 48 -3 25 -8 29 -33 27 -16 -1 -29 2 -29 7
0 6 -5 6 -12 0 -7 -5 -24 -7 -38 -4 -13 4 -46 4 -72 1 -27 -4 -48 -4 -48 -1 0
5 -105 4 -170 -2 -14 -1 -37 1 -52 5 -17 4 -28 3 -28 -3 0 -6 -5 -7 -11 -3
-11 6 -62 7 -167 2 -28 -2 -52 -1 -52 2 0 5 -109 3 -170 -3 -14 -1 -37 1 -52
5 -17 4 -28 3 -28 -3 0 -6 -5 -7 -11 -3 -11 6 -62 7 -167 2 -28 -2 -52 -1 -52
2 0 5 -109 3 -170 -3 -14 -1 -37 1 -52 5 -17 4 -28 3 -28 -3 0 -6 -5 -7 -11
-3 -11 6 -62 7 -167 2 -28 -2 -52 -1 -52 2 0 5 -109 3 -170 -3 -14 -1 -37 1
-52 5 -17 4 -28 3 -28 -3 0 -6 -5 -7 -11 -3 -11 6 -62 7 -167 2 -28 -2 -52 -1
-52 2 0 3 -30 4 -67 2 -134 -5 -161 -5 -172 2 -6 4 -11 2 -11 -4 0 -6 -5 -8
-11 -5 -6 4 -34 7 -62 6 -102 -2 -150 0 -158 5 -5 3 -10 3 -10 0z"/>
<path d="M5122 11863 l3 -38 170 -1 c146 0 277 -9 295 -19 3 -2 25 -6 49 -10
84 -12 152 -45 205 -99 71 -71 96 -129 111 -251 5 -47 8 -70 20 -182 9 -84 16
-156 21 -223 3 -36 6 -81 8 -100 17 -168 21 -480 21 -1880 0 -1401 -4 -1771
-20 -1970 -2 -25 -6 -94 -10 -155 -7 -123 -7 -123 -24 -184 -20 -71 -72 -161
-122 -211 -39 -38 -63 -52 -141 -78 -191 -64 -224 -68 -492 -62 -43 1 -82 -2
-86 -7 -5 -4 -10 -21 -12 -38 l-3 -30 1346 -3 1345 -2 -1 37 c-1 47 14 45
-270 41 -147 -2 -204 8 -352 59 -89 31 -138 62 -186 121 -66 83 -101 181 -111
317 -3 39 -8 84 -10 100 -13 91 -19 489 -20 1320 l-1 930 1110 5 1110 5 1 58
0 57 -1120 0 -1121 0 1 798 c1 708 6 1020 19 1117 3 17 7 56 10 88 3 31 7 83
10 115 10 101 40 166 106 229 30 29 109 71 109 58 0 -2 12 0 26 6 39 14 190
47 259 55 75 9 235 12 235 4 0 -3 24 -3 54 0 30 3 63 3 73 -1 28 -10 48 3 48
34 l1 27 -1334 0 -1333 0 3 -37z"/>
<path d="M1108 9033 c-3 -4 -4 -489 -4 -1077 l1 -1068 -29 63 c-16 35 -31 86
-34 112 -5 52 -22 46 -22 -7 0 -25 -92 -232 -109 -246 -4 -3 -15 -18 -25 -35
-53 -82 -242 -265 -275 -265 -6 0 -11 -3 -11 -7 0 -5 -10 -13 -23 -19 -12 -6
-43 -23 -69 -37 -61 -34 -209 -83 -273 -91 -28 -4 -59 -9 -70 -11 -11 -2 -48
-4 -82 -4 -35 -1 -63 -5 -63 -11 0 -7 353 -10 1040 -10 607 0 1040 4 1040 9 0
5 -35 9 -77 9 -43 -1 -103 3 -133 7 -30 5 -59 9 -65 9 -103 9 -335 114 -445
201 -72 58 -169 163 -217 236 l-27 42 -1 1100 c0 825 -3 1101 -12 1104 -6 2
-13 0 -15 -4z"/>
</g>
</svg>
