<svg width="25" height="20" viewBox="0 0 25 20" fill="none" xmlns="http://www.w3.org/2000/svg">
<path d="M1.23901 0H20.3512C20.6909 0 21.0022 0.145233 21.226 0.376763C21.4498 0.608293 21.5902 0.930331 21.5902 1.28184V14.8706C21.5902 15.1358 21.5108 15.3841 21.3765 15.5883C21.3521 15.6535 21.3135 15.7167 21.2606 15.7693C21.226 15.803 21.1873 15.8325 21.1446 15.8535C20.929 16.0387 20.6523 16.1524 20.3532 16.1524H1.23901C0.899251 16.1524 0.587972 16.0093 0.364176 15.7756C0.140381 15.542 0 15.2221 0 14.8684V1.28184C0 0.928226 0.138346 0.608293 0.364176 0.376763C0.587972 0.143128 0.897217 0 1.23901 0ZM23.761 20H3.74959C3.40983 20 3.09855 19.8548 2.87476 19.6232C2.65096 19.3917 2.51058 19.0697 2.51058 18.7182V17.43H3.45052V19.017H24.0723V3.90234H22.819V2.91939H23.759C24.0987 2.91939 24.41 3.06251 24.6338 3.29615C24.8576 3.52768 24.998 3.84761 24.998 4.20122V18.7203C24.998 19.0739 24.8596 19.3938 24.6338 19.6253C24.412 19.8569 24.1028 20 23.761 20ZM0.950114 14.3296L7.64771 7.38371L0.950114 1.73437V14.3296ZM8.38623 8.00463L1.47909 15.1673H20.0501L13.4521 8.00674L11.2773 9.92423C11.1064 10.0758 10.8521 10.0842 10.671 9.93265L8.38623 8.00463ZM14.1744 7.37108L20.6401 14.3864V1.67123L14.1744 7.37108ZM1.55843 0.982951L10.9619 8.91391L19.9605 0.982951H1.55843Z" fill="#C09A5B"/>
</svg>
