<svg width="203" height="79" viewBox="0 0 203 79" fill="none" xmlns="http://www.w3.org/2000/svg">
<path d="M6.77859 61.95L4.72859 67H4.22859L2.18859 61.95V67H1.01859V60.33H2.66859L4.47859 64.82L6.29859 60.33H7.94859V67H6.77859V61.95ZM18.5982 65.72H15.4382L14.9482 67H13.6682L16.2882 60.33H17.7482L20.3682 67H19.0882L18.5982 65.72ZM15.7682 64.69H18.2682L17.0182 61.32L15.7682 64.69ZM26.2191 65.16C26.4724 65.4333 26.7791 65.6567 27.1391 65.83C27.4991 65.9967 27.8957 66.08 28.3291 66.08C28.7757 66.08 29.1091 65.99 29.3291 65.81C29.5557 65.63 29.6691 65.4167 29.6691 65.17C29.6691 64.9833 29.6024 64.83 29.4691 64.71C29.3424 64.59 29.1791 64.4967 28.9791 64.43C28.7791 64.3567 28.5024 64.2733 28.1491 64.18C27.6491 64.06 27.2424 63.9367 26.9291 63.81C26.6157 63.6833 26.3457 63.49 26.1191 63.23C25.8924 62.9633 25.7791 62.6133 25.7791 62.18C25.7791 61.8133 25.8791 61.4833 26.0791 61.19C26.2857 60.89 26.5724 60.6567 26.9391 60.49C27.3124 60.3167 27.7357 60.23 28.2091 60.23C29.2357 60.23 30.0691 60.54 30.7091 61.16L30.0391 62.03C29.7857 61.7767 29.4891 61.5867 29.1491 61.46C28.8157 61.3333 28.4691 61.27 28.1091 61.27C27.7624 61.27 27.4857 61.3467 27.2791 61.5C27.0791 61.6467 26.9791 61.8467 26.9791 62.1C26.9791 62.26 27.0424 62.3933 27.1691 62.5C27.2957 62.6067 27.4524 62.6933 27.6391 62.76C27.8324 62.8267 28.1024 62.9033 28.4491 62.99C28.9491 63.1167 29.3591 63.2467 29.6791 63.38C30.0057 63.5133 30.2824 63.7167 30.5091 63.99C30.7424 64.2567 30.8591 64.6133 30.8591 65.06C30.8591 65.4467 30.7657 65.7967 30.5791 66.11C30.3924 66.4167 30.1057 66.6633 29.7191 66.85C29.3324 67.03 28.8524 67.12 28.2791 67.12C27.6857 67.12 27.1624 67.0267 26.7091 66.84C26.2624 66.6533 25.8824 66.3933 25.5691 66.06L26.2191 65.16ZM36.9366 60.33H38.1066V67H36.9366V60.33ZM45.6944 62.14V67H44.5244V60.33H45.7244L49.1344 65.06V60.33H50.3044V67H49.1744L45.6944 62.14ZM60.9517 65.72H57.7917L57.3017 67H56.0217L58.6417 60.33H60.1017L62.7217 67H61.4417L60.9517 65.72ZM58.1217 64.69H60.6217L59.3717 61.32L58.1217 64.69ZM80.6586 64.09H77.1886V67H76.0186V60.33H77.1886V63.06H80.6586V60.33H81.8286V67H80.6586V64.09ZM87.9451 63.67C87.9451 63.0167 88.0885 62.4267 88.3751 61.9C88.6685 61.3733 89.0718 60.9633 89.5851 60.67C90.1051 60.37 90.6951 60.22 91.3551 60.22C92.0151 60.22 92.6018 60.37 93.1151 60.67C93.6351 60.9633 94.0385 61.3733 94.3251 61.9C94.6185 62.4267 94.7651 63.0167 94.7651 63.67C94.7651 64.3233 94.6185 64.9133 94.3251 65.44C94.0385 65.9667 93.6351 66.38 93.1151 66.68C92.6018 66.9733 92.0151 67.12 91.3551 67.12C90.6951 67.12 90.1051 66.9733 89.5851 66.68C89.0718 66.38 88.6685 65.9667 88.3751 65.44C88.0885 64.9133 87.9451 64.3233 87.9451 63.67ZM93.5651 63.67C93.5651 63.21 93.4718 62.7967 93.2851 62.43C93.1051 62.0633 92.8485 61.7767 92.5151 61.57C92.1818 61.3633 91.7951 61.26 91.3551 61.26C90.9151 61.26 90.5285 61.3633 90.1951 61.57C89.8618 61.7767 89.6018 62.0633 89.4151 62.43C89.2351 62.7967 89.1451 63.21 89.1451 63.67C89.1451 64.1233 89.2351 64.5333 89.4151 64.9C89.6018 65.2667 89.8618 65.5567 90.1951 65.77C90.5285 65.9767 90.9151 66.08 91.3551 66.08C91.7951 66.08 92.1818 65.9767 92.5151 65.77C92.8485 65.5567 93.1051 65.2667 93.2851 64.9C93.4718 64.5333 93.5651 64.1233 93.5651 63.67ZM100.892 60.33H102.072V64.33C102.072 64.87 102.218 65.2967 102.512 65.61C102.812 65.9233 103.235 66.08 103.782 66.08C104.328 66.08 104.748 65.9233 105.042 65.61C105.335 65.2967 105.482 64.87 105.482 64.33V60.33H106.662V64.36C106.662 65.2133 106.415 65.8867 105.922 66.38C105.435 66.8733 104.722 67.12 103.782 67.12C102.835 67.12 102.115 66.8733 101.622 66.38C101.135 65.8867 100.892 65.2167 100.892 64.37V60.33ZM113.299 65.16C113.552 65.4333 113.859 65.6567 114.219 65.83C114.579 65.9967 114.976 66.08 115.409 66.08C115.856 66.08 116.189 65.99 116.409 65.81C116.636 65.63 116.749 65.4167 116.749 65.17C116.749 64.9833 116.682 64.83 116.549 64.71C116.422 64.59 116.259 64.4967 116.059 64.43C115.859 64.3567 115.582 64.2733 115.229 64.18C114.729 64.06 114.322 63.9367 114.009 63.81C113.696 63.6833 113.426 63.49 113.199 63.23C112.972 62.9633 112.859 62.6133 112.859 62.18C112.859 61.8133 112.959 61.4833 113.159 61.19C113.366 60.89 113.652 60.6567 114.019 60.49C114.392 60.3167 114.816 60.23 115.289 60.23C116.316 60.23 117.149 60.54 117.789 61.16L117.119 62.03C116.866 61.7767 116.569 61.5867 116.229 61.46C115.896 61.3333 115.549 61.27 115.189 61.27C114.842 61.27 114.566 61.3467 114.359 61.5C114.159 61.6467 114.059 61.8467 114.059 62.1C114.059 62.26 114.122 62.3933 114.249 62.5C114.376 62.6067 114.532 62.6933 114.719 62.76C114.912 62.8267 115.182 62.9033 115.529 62.99C116.029 63.1167 116.439 63.2467 116.759 63.38C117.086 63.5133 117.362 63.7167 117.589 63.99C117.822 64.2567 117.939 64.6133 117.939 65.06C117.939 65.4467 117.846 65.7967 117.659 66.11C117.472 66.4167 117.186 66.6633 116.799 66.85C116.412 67.03 115.932 67.12 115.359 67.12C114.766 67.12 114.242 67.0267 113.789 66.84C113.342 66.6533 112.962 66.3933 112.649 66.06L113.299 65.16ZM124.017 60.33H128.587V61.36H125.187V63.09H128.517V64.12H125.187V65.97H128.587V67H124.017V60.33ZM142.356 60.33H144.836C145.523 60.33 146.13 60.4733 146.656 60.76C147.183 61.04 147.593 61.4333 147.886 61.94C148.18 62.4467 148.326 63.0233 148.326 63.67C148.326 64.3167 148.18 64.8933 147.886 65.4C147.593 65.9 147.183 66.2933 146.656 66.58C146.13 66.86 145.523 67 144.836 67H142.356V60.33ZM144.836 65.97C145.303 65.97 145.71 65.87 146.056 65.67C146.403 65.4633 146.666 65.1867 146.846 64.84C147.033 64.4867 147.126 64.0967 147.126 63.67C147.126 63.2367 147.036 62.8467 146.856 62.5C146.683 62.1467 146.423 61.87 146.076 61.67C145.73 61.4633 145.316 61.36 144.836 61.36H143.526V65.97H144.836ZM154.456 60.33H159.026V61.36H155.626V63.09H158.956V64.12H155.626V65.97H159.026V67H154.456V60.33ZM165.448 65.16C165.701 65.4333 166.008 65.6567 166.368 65.83C166.728 65.9967 167.124 66.08 167.558 66.08C168.004 66.08 168.338 65.99 168.558 65.81C168.784 65.63 168.898 65.4167 168.898 65.17C168.898 64.9833 168.831 64.83 168.698 64.71C168.571 64.59 168.408 64.4967 168.208 64.43C168.008 64.3567 167.731 64.2733 167.378 64.18C166.878 64.06 166.471 63.9367 166.158 63.81C165.844 63.6833 165.574 63.49 165.348 63.23C165.121 62.9633 165.008 62.6133 165.008 62.18C165.008 61.8133 165.108 61.4833 165.308 61.19C165.514 60.89 165.801 60.6567 166.168 60.49C166.541 60.3167 166.964 60.23 167.438 60.23C168.464 60.23 169.298 60.54 169.938 61.16L169.268 62.03C169.014 61.7767 168.718 61.5867 168.378 61.46C168.044 61.3333 167.698 61.27 167.338 61.27C166.991 61.27 166.714 61.3467 166.508 61.5C166.308 61.6467 166.208 61.8467 166.208 62.1C166.208 62.26 166.271 62.3933 166.398 62.5C166.524 62.6067 166.681 62.6933 166.868 62.76C167.061 62.8267 167.331 62.9033 167.678 62.99C168.178 63.1167 168.588 63.2467 168.908 63.38C169.234 63.5133 169.511 63.7167 169.738 63.99C169.971 64.2567 170.088 64.6133 170.088 65.06C170.088 65.4467 169.994 65.7967 169.808 66.11C169.621 66.4167 169.334 66.6633 168.948 66.85C168.561 67.03 168.081 67.12 167.508 67.12C166.914 67.12 166.391 67.0267 165.938 66.84C165.491 66.6533 165.111 66.3933 164.798 66.06L165.448 65.16ZM176.165 60.33H177.335V67H176.165V60.33ZM183.453 63.67C183.453 62.99 183.606 62.39 183.913 61.87C184.226 61.3433 184.65 60.9367 185.183 60.65C185.716 60.3633 186.306 60.22 186.953 60.22C187.56 60.22 188.083 60.3467 188.523 60.6C188.97 60.8533 189.343 61.19 189.643 61.61L188.683 62.15C188.496 61.89 188.25 61.6767 187.943 61.51C187.643 61.3433 187.313 61.26 186.953 61.26C186.52 61.26 186.126 61.3633 185.773 61.57C185.426 61.7767 185.153 62.0633 184.953 62.43C184.753 62.7967 184.653 63.21 184.653 63.67C184.653 64.13 184.753 64.5433 184.953 64.91C185.153 65.2767 185.426 65.5667 185.773 65.78C186.126 65.9867 186.52 66.09 186.953 66.09C187.486 66.09 187.92 65.9367 188.253 65.63C188.586 65.3167 188.803 64.9233 188.903 64.45H186.543V63.42H190.183C190.183 64.1667 190.05 64.82 189.783 65.38C189.523 65.94 189.143 66.3733 188.643 66.68C188.143 66.98 187.546 67.13 186.853 67.13C186.24 67.13 185.673 66.9867 185.153 66.7C184.633 66.4067 184.22 66 183.913 65.48C183.606 64.9533 183.453 64.35 183.453 63.67ZM197.374 62.14V67H196.204V60.33H197.404L200.814 65.06V60.33H201.984V67H200.854L197.374 62.14Z" fill="#B29E75"/>
<mask id="mask0_272:48" style="mask-type:alpha" maskUnits="userSpaceOnUse" x="38" y="0" width="111" height="80">
<path d="M89.4746 25.226C91.2305 23.1298 93.3241 21.3718 95.6879 19.9518C98.727 18.0585 102.036 16.5709 105.481 15.6919C108.992 14.7452 112.639 14.3395 116.354 14.4071H116.489C121.959 14.4747 127.227 16.0976 130.806 19.9518C134.116 23.4679 136.479 28.404 136.007 33.4754C135.601 37.6677 133.373 41.4543 131.009 44.8352C128.51 48.4189 125.404 51.5294 121.824 54.0312C117.975 56.6007 114.193 57.2769 110.005 57.3445C103.522 57.4797 96.0255 55.5864 91.5682 50.2446C91.2981 49.9065 90.9604 49.5008 90.6902 49.0951C89.1369 46.8637 87.8537 44.3619 87.0433 41.7924C85.2198 36.1801 85.49 30.1621 89.4746 25.226Z" stroke="white" stroke-width="0.2" stroke-miterlimit="10"/>
<path d="M82.4501 22.3861C84.8814 20.0194 87.7854 18.5995 90.757 17.3147C94.7416 15.6243 98.8612 14.3395 103.116 13.5957C107.506 12.7843 111.896 12.4462 116.353 12.5815H116.556C123.174 12.7843 129.455 14.61 133.372 20.0871C136.276 24.1441 138.505 29.3507 137.964 34.7602C137.492 39.2229 135.398 43.28 133.034 46.9314C130.063 51.5294 126.011 55.3836 121.216 58.156C116.015 61.1312 111.355 60.8607 106.088 59.914C99.0638 58.6293 91.0946 55.857 85.8944 49.9066C85.5567 49.5009 85.219 49.0952 84.8814 48.6894C82.9904 46.2552 81.3695 43.6181 80.1539 40.7782C77.4524 34.4897 76.9797 27.7279 82.4501 22.3861Z" stroke="white" stroke-width="0.2" stroke-miterlimit="10"/>
<path d="M75.4266 19.208C78.4657 16.7062 82.1802 15.4214 85.8947 14.3395C90.7572 12.8519 95.7549 11.77 100.82 11.1615C106.02 10.5529 111.221 10.2824 116.421 10.4853H116.623C124.457 10.8234 131.819 12.8519 135.871 19.8842C138.505 24.347 140.463 29.9593 139.856 35.6392C139.383 40.3724 137.357 44.7676 134.993 48.6218C131.481 54.3017 126.484 58.8998 120.608 61.8749C114.057 65.2558 108.519 64.1063 102.171 62.0102C94.6068 59.4407 86.2323 55.6541 80.2892 49.0951C79.884 48.6894 79.4788 48.2161 79.1411 47.7428C76.9124 45.1057 74.9539 42.1981 73.2655 39.1553C69.6861 32.3935 68.4705 24.9555 75.4266 19.208Z" stroke="white" stroke-width="0.2" stroke-miterlimit="10"/>
<path d="M68.4024 15.9624C72.1168 13.2577 76.5742 12.1758 80.964 11.2291C86.7045 10.012 92.5801 9.13297 98.4557 8.59203C104.399 8.1187 110.41 7.98347 116.42 8.25394H116.69C125.673 8.65965 134.25 10.891 138.437 19.6138C140.801 24.5499 142.421 30.5002 141.814 36.5182C141.206 41.3867 139.585 46.12 137.086 50.3799C133.102 57.0741 127.158 62.4159 120.067 65.7292C112.098 69.4482 105.682 67.6225 98.3207 64.2416C90.0813 60.455 81.3692 55.5189 74.6832 48.3514C74.278 47.8781 73.8052 47.4047 73.3325 46.8638C70.7661 44.0238 68.4699 40.981 66.4438 37.7354C61.919 30.2974 59.9604 22.048 68.4024 15.9624Z" stroke="white" stroke-width="0.2" stroke-miterlimit="10"/>
<path d="M61.3797 12.6491C65.7695 9.80914 70.9698 8.86249 76.1025 8.1187C82.721 7.10443 89.407 6.42825 96.2281 6.02254C103.049 5.61683 109.735 5.68445 116.556 6.02254H116.826C127.024 6.56348 136.885 8.86249 141.004 19.2757C143.368 24.9556 144.313 31.1764 143.841 37.3296C143.233 42.4686 141.68 47.4723 139.113 52.0027C134.791 59.7788 127.43 65.7968 119.46 69.3805C110.14 73.4376 102.711 70.9358 94.4046 66.2701C85.5574 61.2664 76.4401 55.1808 69.0112 47.4047C68.5385 46.9314 68.0657 46.3904 67.5254 45.8495C64.6214 42.8067 61.92 39.4934 59.4887 36.0449C54.1534 28.1336 51.452 19.208 61.3797 12.6491Z" stroke="white" stroke-width="0.2" stroke-miterlimit="10"/>
<path d="M54.4229 9.40344C59.4205 6.36064 65.4312 5.61684 71.2392 5.00828C78.7357 4.19686 86.2997 3.72354 93.8637 3.52068C101.428 3.31783 108.992 3.38545 116.556 3.79115H116.893C128.239 4.39971 139.45 6.90158 143.57 18.9376C145.663 25.0908 146.406 31.6498 145.799 38.1411C145.258 43.5505 143.705 48.8247 141.139 53.6256C136.411 62.4835 128.037 69.1777 118.919 73.0319C108.249 77.4947 99.8068 74.3167 90.5544 68.2987C80.9644 62.1454 71.5769 54.9779 63.4726 46.5257L61.8518 44.8353C58.6101 41.5896 55.571 38.0735 52.7345 34.4221C46.3861 25.9698 42.8743 16.3681 54.4229 9.40344Z" stroke="white" stroke-width="0.2" stroke-miterlimit="10"/>
<path d="M116.624 1.62702H116.962C129.523 2.37082 142.152 4.9403 146.069 18.7344C149.311 30.0942 148.568 44.7673 143.098 55.3157C137.965 65.2555 128.443 72.6259 118.245 76.7506C106.223 81.6191 96.7684 77.6972 86.5705 70.3945C76.3051 63.0241 66.6475 54.7747 57.8003 45.7139C48.2778 36.0446 27.3417 17.4496 47.3998 6.15742C53.0728 2.97938 59.8264 2.43844 66.3773 1.96511C83.1262 0.815606 99.875 0.68037 116.624 1.62702Z" stroke="white" stroke-width="0.2" stroke-miterlimit="10"/>
<path d="M83.6369 41.6086L82.3783 44.3716H81.5917L72.4671 24.2413C72.1525 23.5308 71.5232 22.9782 70.8152 22.7414C70.1073 22.5046 69.3207 22.4256 68.5341 22.4256H67.9048V22.3467H74.9056L83.6369 41.6086ZM76.1641 44.2927V44.3716H67.9834V44.2927C69.7926 44.3716 71.3658 43.1875 71.9165 41.5297C71.9165 41.4507 71.9165 41.3718 71.9165 41.2928H71.9951C71.9951 41.3718 71.9951 41.4507 71.9951 41.5297C72.5458 43.2664 74.2763 44.4505 76.1641 44.2927Z" fill="white"/>
<path d="M91.2963 23.9927C91.217 23.5224 90.9788 23.2089 90.5819 22.9737C89.8674 22.7386 89.0735 22.6602 88.359 22.7386H88.0415V22.4251H98.5205V22.6602H97.8854C97.0916 22.5818 96.3771 22.7386 95.5832 22.9737C95.1863 23.2089 94.9481 23.6008 94.9481 24.0711C94.7894 25.2468 94.7894 26.4225 94.7894 27.5982V32.3794H103.601V32.8497H94.8687V38.8066C94.8687 40.0607 94.8687 41.2364 95.0275 42.4905C95.1069 42.9607 95.3451 43.3526 95.742 43.6662C96.3771 43.9797 97.0916 44.1365 97.806 44.0581H98.5999V44.3716H88.0415V44.0581H88.5972C89.3117 44.1365 90.0262 43.9797 90.7406 43.6662C91.1376 43.3526 91.3757 42.8824 91.4551 42.4121C91.5345 41.2364 91.6139 40.0607 91.6139 38.885V27.5982C91.5345 26.3441 91.4551 25.1684 91.2963 23.9927ZM106.062 43.5094C106.459 43.1959 106.697 42.7256 106.777 42.2553C106.935 41.0796 106.935 39.9039 106.935 38.7282V34.9659V30.3415V27.5198C107.015 26.3441 106.935 25.09 106.777 23.9143C106.697 23.444 106.459 23.1305 106.062 22.8953C105.348 22.6602 104.633 22.5818 103.839 22.6602H103.442V22.3467H113.842V22.6602H113.445C112.651 22.5818 111.937 22.7386 111.143 22.9737C110.746 23.2089 110.508 23.6008 110.428 24.0711C110.27 25.2468 110.27 26.4225 110.27 27.5982V38.8066C110.27 40.0607 110.27 41.2364 110.428 42.4905C110.508 42.9607 110.746 43.3526 111.143 43.6662C111.778 43.9797 112.493 44.1365 113.207 44.0581H113.842V44.3716H103.442V44.0581H104.078C104.713 43.9797 105.427 43.8229 106.062 43.5094Z" fill="white"/>
<path d="M123.541 44.3717H116.359V44.2925H117.306C118.016 44.3717 118.726 44.2133 119.358 43.8965C119.752 43.6588 119.989 43.1836 120.068 42.7083C120.226 41.4409 120.226 40.0944 120.226 38.827V27.7375C120.226 26.4702 120.226 25.2028 120.068 23.9354C119.989 23.4602 119.752 23.0641 119.358 22.8265C118.648 22.5888 117.858 22.4304 117.069 22.5096H116.438V22.4304C116.438 22.4304 120.463 22.1136 123.541 21.9552V44.3717ZM140.272 33.5199C140.272 35.1041 140.035 36.6883 139.482 38.1141C139.088 39.3815 138.378 40.5696 137.431 41.5994C136.562 42.4707 135.536 43.1044 134.353 43.5004C133.248 43.8965 132.143 44.1341 131.038 44.1341C130.012 44.2133 128.591 44.2925 126.855 44.2925V44.2133H127.171C128.828 44.2925 130.486 43.9757 132.064 43.4212C133.485 42.7083 134.589 41.5994 135.3 40.1736C136.247 38.1933 136.641 35.9754 136.562 33.7575C136.562 32.0149 136.326 30.1931 135.852 28.5296C135.379 27.0246 134.589 25.2028 133.721 24.2523C132.853 23.3809 131.827 22.6681 130.643 22.272C129.46 21.9552 128.197 21.7967 126.855 21.7175C130.17 21.7175 132.774 22.0344 134.668 23.0641C136.483 24.0146 137.904 25.4404 138.851 27.2623C139.798 29.2425 140.272 31.3812 140.272 33.5199Z" fill="white"/>
<path d="M83.6362 41.8545L85.5241 37.7642L87.4119 33.6738L85.5241 37.7642L83.6362 41.8545Z" stroke="white" stroke-width="0.2" stroke-miterlimit="10"/>
<path d="M72.3101 42.4839V33.674" stroke="white" stroke-width="0.2" stroke-miterlimit="10"/>
</mask>
<g mask="url(#mask0_272:48)">
<rect x="36.0513" y="0.951172" width="114.923" height="78.0311" fill="#B29E75"/>
</g>
</svg>
