<svg width="250" height="124" viewBox="0 0 250 124" fill="none" xmlns="http://www.w3.org/2000/svg">
<g clip-path="url(#clip0)">
<path d="M94.2763 38.5754C97.0666 35.2444 100.394 32.4506 104.15 30.1941C108.979 27.1855 114.238 24.8215 119.711 23.4246C125.292 21.9203 131.088 21.2756 136.99 21.3831H137.205C145.898 21.4905 154.269 24.0694 159.957 30.1941C165.216 35.7817 168.972 43.6257 168.221 51.6846C167.577 58.3467 164.035 64.364 160.279 69.7366C156.308 75.4316 151.371 80.3744 145.683 84.3501C139.566 88.4333 133.556 89.5078 126.902 89.6153C116.599 89.8302 104.686 86.8215 97.6032 78.3328C97.1739 77.7955 96.6373 77.1508 96.208 76.5061C93.7396 72.9602 91.7005 68.9844 90.4127 64.9012C87.515 55.9827 87.9443 46.4194 94.2763 38.5754Z" stroke="#1B1B1B" stroke-width="0.3" stroke-miterlimit="10"/>
<path d="M83.1148 34.0622C86.9783 30.3014 91.5931 28.0449 96.3153 26.0033C102.647 23.317 109.194 21.2754 115.955 20.0934C122.931 18.804 129.907 18.2667 136.99 18.4816L137.312 18.4816C147.83 18.804 157.811 21.7052 164.035 30.4088C168.65 36.8559 172.192 45.1298 171.333 53.726C170.582 60.8178 167.255 67.265 163.499 73.0674C158.776 80.3741 152.337 86.4989 144.717 90.9045C136.454 95.6324 129.048 95.2026 120.677 93.6982C109.516 91.6566 96.8519 87.2511 88.5881 77.7953C88.0515 77.1506 87.5149 76.5059 86.9783 75.8611C83.9733 71.9929 81.3976 67.8022 79.4658 63.2892C75.173 53.2962 74.4217 42.5509 83.1148 34.0622Z" stroke="#1B1B1B" stroke-width="0.3" stroke-miterlimit="10"/>
<path d="M71.9535 29.0121C76.783 25.0364 82.6857 22.9948 88.5883 21.2755C96.3155 18.9116 104.257 17.1923 112.306 16.2253C120.57 15.2582 128.834 14.8284 137.098 15.1508H137.42C149.869 15.688 161.567 18.9116 168.006 30.0866C172.192 37.1785 175.304 46.097 174.338 55.123C173.587 62.6447 170.367 69.6291 166.611 75.7539C161.03 84.7799 153.089 92.0866 143.752 96.8145C133.341 102.187 124.541 100.36 114.453 97.0294C102.433 92.9462 89.125 86.9289 79.6807 76.506C79.0367 75.8613 78.3928 75.1092 77.8562 74.357C74.3146 70.1663 71.2023 65.5459 68.5192 60.7105C62.8312 49.9653 60.8994 38.1456 71.9535 29.0121Z" stroke="#1B1B1B" stroke-width="0.3" stroke-miterlimit="10"/>
<path d="M60.7921 23.8544C66.6948 19.5563 73.778 17.837 80.7539 16.3327C89.8762 14.3986 99.2132 13.0017 108.55 12.1421C117.994 11.3899 127.546 11.175 137.098 11.6048H137.527C151.801 12.2495 165.431 15.7954 172.085 29.6568C175.841 37.5008 178.416 46.9566 177.451 56.5199C176.485 64.2564 173.909 71.7781 169.938 78.5476C163.606 89.1854 154.162 97.6741 142.893 102.939C130.229 108.849 120.034 105.948 108.336 100.575C95.2423 94.558 81.3978 86.714 70.773 75.324C70.1291 74.5719 69.3778 73.8197 68.6266 72.9601C64.5484 68.4471 60.8994 63.6117 57.6798 58.454C50.4892 46.6343 47.3769 33.5251 60.7921 23.8544Z" stroke="#1B1B1B" stroke-width="0.3" stroke-miterlimit="10"/>
<path d="M49.6307 18.5892C56.6066 14.0762 64.8704 12.5719 73.0268 11.3899C83.5443 9.77814 94.1692 8.70361 105.009 8.0589C115.848 7.41418 126.473 7.52164 137.312 8.0589H137.742C153.947 8.91852 169.616 12.5719 176.163 29.1196C179.919 38.1456 181.422 48.0312 180.67 57.8093C179.704 65.9757 177.236 73.9272 173.158 81.1265C166.289 93.4835 154.591 103.047 141.927 108.742C127.117 115.189 115.311 111.213 102.111 103.799C88.0518 95.8474 73.5634 86.1767 61.7581 73.8197C61.0068 73.0676 60.2556 72.2079 59.397 71.3483C54.7822 66.513 50.4893 61.2478 46.6257 55.7677C38.1473 43.1958 33.8545 29.0121 49.6307 18.5892Z" stroke="#1B1B1B" stroke-width="0.3" stroke-miterlimit="10"/>
<path d="M38.5764 13.4316C46.5182 8.59625 56.0698 7.41427 65.2995 6.4472C77.2122 5.15777 89.2322 4.40561 101.252 4.08325C113.272 3.76089 125.292 3.86835 137.312 4.51306H137.849C155.879 5.48013 173.694 9.45587 180.241 28.5824C183.568 38.3606 184.748 48.7834 183.782 59.0989C182.924 67.695 180.455 76.0763 176.377 83.7054C168.865 97.7817 155.557 108.419 141.068 114.544C124.112 121.636 110.696 116.586 95.9934 107.023C80.7538 97.2444 65.8361 85.8545 52.9575 72.423L50.3818 69.7366C45.2304 64.5789 40.4009 58.9914 35.8934 53.189C25.8052 39.7574 20.2245 24.4992 38.5764 13.4316Z" stroke="#1B1B1B" stroke-width="0.3" stroke-miterlimit="10"/>
<path d="M137.419 1.07404H137.956C157.918 2.25602 177.987 6.33921 184.211 28.2595C189.363 46.3115 188.182 69.6286 179.489 86.3912C171.333 102.187 156.2 113.899 139.995 120.454C120.892 128.19 105.867 121.958 89.6611 110.353C73.3482 98.6408 58.0013 85.5316 43.9421 71.133C28.8098 55.7673 -4.45986 26.2179 27.4146 8.27335C36.4296 3.22309 47.1618 2.36347 57.572 1.6113C84.1877 -0.215385 110.803 -0.43029 137.419 1.07404Z" stroke="#1B1B1B" stroke-width="0.3" stroke-miterlimit="10"/>
<path d="M85 64.6093L83 69H81.75L67.25 37.0108C66.75 35.8817 65.75 35.0036 64.625 34.6272C63.5 34.2509 62.25 34.1255 61 34.1255H60V34H71.125L85 64.6093ZM73.125 68.8746V69H60.125V68.8746C63 69 65.5 67.1183 66.375 64.4839C66.375 64.3584 66.375 64.233 66.375 64.1075H66.5C66.5 64.233 66.5 64.3584 66.5 64.4839C67.375 67.2437 70.125 69.1255 73.125 68.8746Z" fill="#1B1B1B"/>
<path d="M97.1723 36.6157C97.0462 35.8683 96.6677 35.3701 96.0369 34.9964C94.9015 34.6228 93.64 34.4982 92.5046 34.6228H92V34.1246H108.652V34.4982H107.643C106.382 34.3737 105.246 34.6228 103.985 34.9964C103.354 35.3701 102.975 35.9929 102.975 36.7402C102.723 38.6085 102.723 40.4769 102.723 42.3452V49.9431H116.726V50.6904H102.849V60.1566C102.849 62.1495 102.849 64.0178 103.102 66.0107C103.228 66.758 103.606 67.3808 104.237 67.879C105.246 68.3772 106.382 68.6263 107.517 68.5018H108.778V69H92V68.5018H92.8831C94.0185 68.6263 95.1538 68.3772 96.2892 67.879C96.92 67.3808 97.2985 66.6334 97.4246 65.8861C97.5508 64.0178 97.6769 62.1495 97.6769 60.2811V42.3452C97.5508 40.3523 97.4246 38.484 97.1723 36.6157ZM120.637 67.6299C121.268 67.1317 121.646 66.3843 121.772 65.637C122.025 63.7687 122.025 61.9004 122.025 60.032V54.0534V46.7046V42.2206C122.151 40.3523 122.025 38.3594 121.772 36.4911C121.646 35.7438 121.268 35.2456 120.637 34.8719C119.502 34.4982 118.366 34.3737 117.105 34.4982H116.474V34H133V34.4982H132.369C131.108 34.3737 129.972 34.6228 128.711 34.9964C128.08 35.3701 127.702 35.9929 127.575 36.7402C127.323 38.6085 127.323 40.4769 127.323 42.3452V60.1566C127.323 62.1495 127.323 64.0178 127.575 66.0107C127.702 66.758 128.08 67.3808 128.711 67.879C129.72 68.3772 130.855 68.6263 131.991 68.5018H133V69H116.474V68.5018H117.483C118.492 68.3772 119.628 68.1281 120.637 67.6299Z" fill="#1B1B1B"/>
<path d="M148.413 69H137V68.8741H138.505C139.634 69 140.762 68.7483 141.766 68.2448C142.393 67.8671 142.769 67.1119 142.894 66.3566C143.145 64.3427 143.145 62.2028 143.145 60.1888V42.5664C143.145 40.5524 143.145 38.5385 142.894 36.5245C142.769 35.7692 142.393 35.1399 141.766 34.7622C140.637 34.3846 139.383 34.1329 138.129 34.2587H137.125V34.1329C137.125 34.1329 143.521 33.6294 148.413 33.3776V69ZM175 51.7552C175 54.2727 174.624 56.7902 173.746 59.0559C173.119 61.0699 171.99 62.958 170.485 64.5944C169.106 65.979 167.475 66.986 165.594 67.6154C163.838 68.2448 162.082 68.6224 160.327 68.6224C158.696 68.7483 156.439 68.8741 153.68 68.8741V68.7483H154.182C156.815 68.8741 159.449 68.3706 161.957 67.4895C164.215 66.3566 165.97 64.5944 167.099 62.3287C168.604 59.1818 169.231 55.6573 169.106 52.1329C169.106 49.3636 168.729 46.4685 167.977 43.8252C167.224 41.4336 165.97 38.5385 164.591 37.028C163.211 35.6434 161.581 34.5105 159.7 33.8811C157.818 33.3776 155.812 33.1259 153.68 33C158.947 33 163.086 33.5035 166.096 35.1399C168.98 36.6503 171.238 38.9161 172.743 41.8112C174.248 44.958 175 48.3566 175 51.7552Z" fill="#1B1B1B"/>
<path d="M85 65L88 58.5L91 52L88 58.5L85 65Z" stroke="#1B1B1B" stroke-width="0.2" stroke-miterlimit="10"/>
<path d="M67 66V52" stroke="#1B1B1B" stroke-width="0.2" stroke-miterlimit="10"/>
</g>
<path d="M7.52408 85.3403L4.80008 92.0003H4.39208L1.68008 85.3403V92.0003H0.684082V83.9963H2.11208L4.59608 90.0923L7.09208 83.9963H8.52008V92.0003H7.52408V85.3403Z" fill="#1B1B1B"/>
<path d="M21.4272 90.2243H17.3712L16.6632 92.0003H15.5592L18.7752 83.9963H20.0112L23.2392 92.0003H22.1352L21.4272 90.2243ZM17.6592 89.3363H21.1272L19.3992 84.8843L17.6592 89.3363Z" fill="#1B1B1B"/>
<path d="M30.2296 90.1163C30.5256 90.4443 30.8896 90.7163 31.3216 90.9323C31.7536 91.1483 32.2296 91.2563 32.7496 91.2563C33.3976 91.2563 33.8736 91.1203 34.1776 90.8483C34.4816 90.5683 34.6336 90.2443 34.6336 89.8763C34.6336 89.5803 34.5416 89.3403 34.3576 89.1563C34.1816 88.9643 33.9616 88.8163 33.6976 88.7123C33.4336 88.6083 33.0696 88.4923 32.6056 88.3643C32.0136 88.2123 31.5376 88.0643 31.1776 87.9203C30.8256 87.7763 30.5216 87.5603 30.2656 87.2723C30.0176 86.9763 29.8936 86.5843 29.8936 86.0963C29.8936 85.6643 30.0136 85.2803 30.2536 84.9443C30.4936 84.6083 30.8216 84.3483 31.2376 84.1643C31.6536 83.9723 32.1216 83.8763 32.6416 83.8763C33.8336 83.8763 34.7816 84.2483 35.4856 84.9923L34.8856 85.7243C34.5976 85.4043 34.2536 85.1643 33.8536 85.0043C33.4536 84.8443 33.0256 84.7643 32.5696 84.7643C32.0896 84.7643 31.6936 84.8843 31.3816 85.1243C31.0776 85.3563 30.9256 85.6603 30.9256 86.0363C30.9256 86.2843 31.0096 86.4923 31.1776 86.6603C31.3536 86.8203 31.5656 86.9483 31.8136 87.0443C32.0616 87.1323 32.4136 87.2363 32.8696 87.3563C33.4616 87.5163 33.9416 87.6763 34.3096 87.8363C34.6856 87.9883 35.0056 88.2243 35.2696 88.5443C35.5336 88.8563 35.6656 89.2723 35.6656 89.7923C35.6656 90.2083 35.5656 90.5963 35.3656 90.9563C35.1656 91.3083 34.8416 91.5963 34.3936 91.8203C33.9536 92.0363 33.3936 92.1443 32.7136 92.1443C32.0496 92.1443 31.4576 92.0323 30.9376 91.8083C30.4256 91.5763 29.9936 91.2643 29.6416 90.8723L30.2296 90.1163Z" fill="#1B1B1B"/>
<path d="M43.1528 83.9963H44.1488V92.0003H43.1528V83.9963Z" fill="#1B1B1B"/>
<path d="M53.0199 85.5443V92.0003H52.0239V83.9963H53.0439L57.6519 90.3203V83.9963H58.6479V92.0003H57.6879L53.0199 85.5443Z" fill="#1B1B1B"/>
<path d="M71.56 90.2243H67.504L66.796 92.0003H65.692L68.908 83.9963H70.144L73.372 92.0003H72.268L71.56 90.2243ZM67.792 89.3363H71.26L69.532 84.8843L67.792 89.3363Z" fill="#1B1B1B"/>
<path d="M95.1882 88.3283H90.5082V92.0003H89.5122V83.9963H90.5082V87.4403H95.1882V83.9963H96.1842V92.0003H95.1882V88.3283Z" fill="#1B1B1B"/>
<path d="M103.731 88.0043C103.731 87.2203 103.895 86.5163 104.223 85.8923C104.559 85.2603 105.027 84.7643 105.627 84.4043C106.235 84.0443 106.927 83.8643 107.703 83.8643C108.479 83.8643 109.167 84.0443 109.767 84.4043C110.367 84.7643 110.835 85.2603 111.171 85.8923C111.507 86.5163 111.675 87.2203 111.675 88.0043C111.675 88.7883 111.507 89.4963 111.171 90.1283C110.835 90.7523 110.367 91.2443 109.767 91.6043C109.167 91.9643 108.479 92.1443 107.703 92.1443C106.927 92.1443 106.235 91.9643 105.627 91.6043C105.027 91.2443 104.559 90.7523 104.223 90.1283C103.895 89.4963 103.731 88.7883 103.731 88.0043ZM110.643 88.0043C110.643 87.3803 110.519 86.8243 110.271 86.3363C110.031 85.8403 109.687 85.4523 109.239 85.1723C108.799 84.8923 108.287 84.7523 107.703 84.7523C107.111 84.7523 106.591 84.8923 106.143 85.1723C105.703 85.4523 105.363 85.8403 105.123 86.3363C104.883 86.8243 104.763 87.3803 104.763 88.0043C104.763 88.6203 104.883 89.1763 105.123 89.6723C105.363 90.1683 105.707 90.5563 106.155 90.8363C106.603 91.1163 107.119 91.2563 107.703 91.2563C108.287 91.2563 108.799 91.1163 109.239 90.8363C109.687 90.5563 110.031 90.1683 110.271 89.6723C110.519 89.1763 110.643 88.6203 110.643 88.0043Z" fill="#1B1B1B"/>
<path d="M119.231 83.9963H120.227V88.8683C120.227 89.6123 120.423 90.1963 120.815 90.6203C121.207 91.0443 121.767 91.2563 122.495 91.2563C123.223 91.2563 123.783 91.0443 124.175 90.6203C124.567 90.1963 124.763 89.6123 124.763 88.8683V83.9963H125.759V88.8803C125.759 89.8963 125.479 90.6963 124.919 91.2803C124.367 91.8563 123.559 92.1443 122.495 92.1443C121.431 92.1443 120.619 91.8563 120.059 91.2803C119.507 90.6963 119.231 89.9003 119.231 88.8923V83.9963Z" fill="#1B1B1B"/>
<path d="M133.741 90.1163C134.037 90.4443 134.401 90.7163 134.833 90.9323C135.265 91.1483 135.741 91.2563 136.261 91.2563C136.909 91.2563 137.385 91.1203 137.689 90.8483C137.993 90.5683 138.145 90.2443 138.145 89.8763C138.145 89.5803 138.053 89.3403 137.869 89.1563C137.693 88.9643 137.473 88.8163 137.209 88.7123C136.945 88.6083 136.581 88.4923 136.117 88.3643C135.525 88.2123 135.049 88.0643 134.689 87.9203C134.337 87.7763 134.033 87.5603 133.777 87.2723C133.529 86.9763 133.405 86.5843 133.405 86.0963C133.405 85.6643 133.525 85.2803 133.765 84.9443C134.005 84.6083 134.333 84.3483 134.749 84.1643C135.165 83.9723 135.633 83.8763 136.153 83.8763C137.345 83.8763 138.293 84.2483 138.997 84.9923L138.397 85.7243C138.109 85.4043 137.765 85.1643 137.365 85.0043C136.965 84.8443 136.537 84.7643 136.081 84.7643C135.601 84.7643 135.205 84.8843 134.893 85.1243C134.589 85.3563 134.437 85.6603 134.437 86.0363C134.437 86.2843 134.521 86.4923 134.689 86.6603C134.865 86.8203 135.077 86.9483 135.325 87.0443C135.573 87.1323 135.925 87.2363 136.381 87.3563C136.973 87.5163 137.453 87.6763 137.821 87.8363C138.197 87.9883 138.517 88.2243 138.781 88.5443C139.045 88.8563 139.177 89.2723 139.177 89.7923C139.177 90.2083 139.077 90.5963 138.877 90.9563C138.677 91.3083 138.353 91.5963 137.905 91.8203C137.465 92.0363 136.905 92.1443 136.225 92.1443C135.561 92.1443 134.969 92.0323 134.449 91.8083C133.937 91.5763 133.505 91.2643 133.153 90.8723L133.741 90.1163Z" fill="#1B1B1B"/>
<path d="M146.665 83.9963H151.909V84.8843H147.661V87.4643H151.825V88.3523H147.661V91.1123H151.909V92.0003H146.665V83.9963Z" fill="#1B1B1B"/>
<path d="M168.59 83.9963H171.326C172.134 83.9963 172.85 84.1723 173.474 84.5243C174.098 84.8683 174.578 85.3483 174.914 85.9643C175.258 86.5723 175.43 87.2523 175.43 88.0043C175.43 88.7643 175.258 89.4483 174.914 90.0563C174.578 90.6563 174.098 91.1323 173.474 91.4843C172.85 91.8283 172.134 92.0003 171.326 92.0003H168.59V83.9963ZM171.326 91.1123C171.958 91.1123 172.506 90.9763 172.97 90.7043C173.434 90.4243 173.786 90.0483 174.026 89.5763C174.274 89.1043 174.398 88.5803 174.398 88.0043C174.398 87.4203 174.278 86.8923 174.038 86.4203C173.798 85.9483 173.446 85.5763 172.982 85.3043C172.518 85.0243 171.966 84.8843 171.326 84.8843H169.586V91.1123H171.326Z" fill="#1B1B1B"/>
<path d="M182.993 83.9963H188.237V84.8843H183.989V87.4643H188.153V88.3523H183.989V91.1123H188.237V92.0003H182.993V83.9963Z" fill="#1B1B1B"/>
<path d="M195.933 90.1163C196.229 90.4443 196.593 90.7163 197.025 90.9323C197.457 91.1483 197.933 91.2563 198.453 91.2563C199.101 91.2563 199.577 91.1203 199.881 90.8483C200.185 90.5683 200.337 90.2443 200.337 89.8763C200.337 89.5803 200.245 89.3403 200.061 89.1563C199.885 88.9643 199.665 88.8163 199.401 88.7123C199.137 88.6083 198.773 88.4923 198.309 88.3643C197.717 88.2123 197.241 88.0643 196.881 87.9203C196.529 87.7763 196.225 87.5603 195.969 87.2723C195.721 86.9763 195.597 86.5843 195.597 86.0963C195.597 85.6643 195.717 85.2803 195.957 84.9443C196.197 84.6083 196.525 84.3483 196.941 84.1643C197.357 83.9723 197.825 83.8763 198.345 83.8763C199.537 83.8763 200.485 84.2483 201.189 84.9923L200.589 85.7243C200.301 85.4043 199.957 85.1643 199.557 85.0043C199.157 84.8443 198.729 84.7643 198.273 84.7643C197.793 84.7643 197.397 84.8843 197.085 85.1243C196.781 85.3563 196.629 85.6603 196.629 86.0363C196.629 86.2843 196.713 86.4923 196.881 86.6603C197.057 86.8203 197.269 86.9483 197.517 87.0443C197.765 87.1323 198.117 87.2363 198.573 87.3563C199.165 87.5163 199.645 87.6763 200.013 87.8363C200.389 87.9883 200.709 88.2243 200.973 88.5443C201.237 88.8563 201.369 89.2723 201.369 89.7923C201.369 90.2083 201.269 90.5963 201.069 90.9563C200.869 91.3083 200.545 91.5963 200.097 91.8203C199.657 92.0363 199.097 92.1443 198.417 92.1443C197.753 92.1443 197.161 92.0323 196.641 91.8083C196.129 91.5763 195.697 91.2643 195.345 90.8723L195.933 90.1163Z" fill="#1B1B1B"/>
<path d="M208.856 83.9963H209.852V92.0003H208.856V83.9963Z" fill="#1B1B1B"/>
<path d="M217.403 88.0043C217.403 87.1963 217.583 86.4803 217.943 85.8563C218.311 85.2243 218.807 84.7363 219.431 84.3923C220.063 84.0403 220.759 83.8643 221.519 83.8643C222.783 83.8643 223.819 84.3643 224.627 85.3643L223.835 85.8563C223.579 85.5203 223.243 85.2523 222.827 85.0523C222.419 84.8523 221.983 84.7523 221.519 84.7523C220.943 84.7523 220.419 84.8923 219.947 85.1723C219.475 85.4443 219.103 85.8283 218.831 86.3243C218.567 86.8203 218.435 87.3803 218.435 88.0043C218.435 88.6283 218.567 89.1883 218.831 89.6843C219.103 90.1803 219.475 90.5683 219.947 90.8483C220.419 91.1283 220.943 91.2683 221.519 91.2683C222.295 91.2683 222.911 91.0323 223.367 90.5603C223.823 90.0883 224.103 89.4923 224.207 88.7723H220.919V87.8843H225.287C225.287 88.7243 225.135 89.4683 224.831 90.1163C224.535 90.7563 224.095 91.2563 223.511 91.6163C222.935 91.9763 222.247 92.1563 221.447 92.1563C220.711 92.1563 220.035 91.9843 219.419 91.6403C218.803 91.2883 218.311 90.7963 217.943 90.1643C217.583 89.5323 217.403 88.8123 217.403 88.0043Z" fill="#1B1B1B"/>
<path d="M233.688 85.5443V92.0003H232.692V83.9963H233.712L238.32 90.3203V83.9963H239.316V92.0003H238.356L233.688 85.5443Z" fill="#1B1B1B"/>
<defs>
<clipPath id="clip0">
<rect width="236" height="124" fill="white" transform="translate(14)"/>
</clipPath>
</defs>
</svg>
