<svg width="17" height="22" viewBox="0 0 17 22" fill="none" xmlns="http://www.w3.org/2000/svg">
<path d="M8.37183 20.9377C9.48431 20.2307 10.484 19.3739 11.3549 18.4183C13.2466 16.3467 14.5231 13.815 15.0344 11.3309C15.5421 8.8785 15.3023 6.47548 14.1793 4.62077C13.8602 4.08833 13.46 3.60173 12.9839 3.1645C11.6193 1.92156 10.0573 1.32918 8.48467 1.31331C6.8327 1.30097 5.15782 1.92156 3.67686 3.10103C3.0457 3.60526 2.5256 4.1853 2.12187 4.82528C1.08167 6.46138 0.766089 8.4924 1.10988 10.6169C1.4572 12.7731 2.48152 15.028 4.1141 17.0713C5.24949 18.4959 6.67755 19.8182 8.37712 20.9342L8.37183 20.9377ZM8.13206 4.06717C9.375 4.06717 10.5033 4.5714 11.3161 5.38769C12.1324 6.20398 12.6366 7.32703 12.6366 8.57174C12.6366 9.81468 12.1324 10.943 11.3161 11.7558C10.4998 12.5721 9.37676 13.0763 8.13206 13.0763C6.88912 13.0763 5.76077 12.5721 4.94801 11.7558C4.13173 10.9395 3.6275 9.81644 3.6275 8.57174C3.6275 7.32879 4.13173 6.20045 4.94801 5.38769C5.7643 4.5714 6.88736 4.06717 8.13206 4.06717ZM10.6673 6.03649C10.0203 5.38945 9.11936 4.98395 8.13206 4.98395C7.13947 4.98395 6.24385 5.38416 5.59681 6.03649C4.94978 6.68352 4.54428 7.58443 4.54428 8.57174C4.54428 9.56433 4.94449 10.4599 5.59681 11.107C6.24385 11.754 7.14476 12.1595 8.13206 12.1595C9.12465 12.1595 10.0203 11.7593 10.6673 11.107C11.3143 10.4599 11.7198 9.55904 11.7198 8.57174C11.7181 7.57915 11.3196 6.68352 10.6673 6.03649ZM12.0795 19.0724C11.0922 20.1514 9.94799 21.1193 8.65568 21.9038C8.50053 22.0202 8.28016 22.0361 8.10385 21.9232C6.19977 20.712 4.60422 19.2557 3.34541 17.6761C1.61235 15.5022 0.517501 13.0904 0.1455 10.7667C-0.233553 8.4113 0.120817 6.14756 1.29324 4.2999C1.75692 3.57176 2.34577 2.90886 3.06862 2.33587C4.72058 1.02065 6.61232 0.324246 8.49172 0.336587C10.3041 0.352454 12.0918 1.02417 13.6433 2.43989C14.1881 2.9353 14.643 3.49595 15.015 4.11125C16.2755 6.18635 16.547 8.83795 15.9952 11.5178C15.4469 14.1694 14.0911 16.8651 12.0848 19.0636L12.0795 19.0724Z" fill="#C09A5B"/>
</svg>
