<svg width="351" height="251" viewBox="0 0 351 251" fill="none" xmlns="http://www.w3.org/2000/svg">
<mask id="mask0_379:2" style="mask-type:alpha" maskUnits="userSpaceOnUse" x="0" y="0" width="351" height="251">
<path d="M162.613 78.5677C168.235 71.8561 174.939 66.2271 182.507 61.6805C192.238 55.6185 202.833 50.8555 213.861 48.0409C225.106 45.0099 236.783 43.7109 248.676 43.9274H249.108C266.623 44.1439 283.49 49.34 294.951 61.6805C305.546 72.9386 313.115 88.7432 311.601 104.981C310.304 118.404 303.168 130.528 295.599 141.353C287.599 152.828 277.652 162.787 266.191 170.797C253.865 179.024 241.756 181.189 228.349 181.406C207.591 181.839 183.588 175.777 169.316 158.673C168.451 157.591 167.37 156.292 166.505 154.993C161.532 147.848 157.423 139.838 154.828 131.611C148.99 113.641 149.855 94.3723 162.613 78.5677Z" stroke="white" stroke-width="0.3" stroke-miterlimit="10"/>
<path d="M140.124 69.4748C147.908 61.8972 157.207 57.3507 166.721 53.2371C179.479 47.8246 192.67 43.7111 206.293 41.3296C220.348 38.7315 234.404 37.649 248.675 38.082H249.324C270.515 38.7315 290.625 44.5771 303.167 62.1137C312.466 75.1038 319.601 91.7744 317.871 109.095C316.358 123.384 309.654 136.374 302.086 148.065C292.572 162.787 279.597 175.127 264.244 184.004C247.594 193.53 232.674 192.664 215.807 189.633C193.318 185.52 167.802 176.643 151.152 157.591C150.071 156.292 148.99 154.993 147.908 153.694C141.854 145.9 136.664 137.456 132.772 128.363C124.122 108.229 122.609 86.5784 140.124 69.4748Z" stroke="white" stroke-width="0.3" stroke-miterlimit="10"/>
<path d="M117.633 59.2992C127.364 51.2886 139.257 47.1751 151.15 43.711C166.719 38.948 182.721 35.484 198.939 33.5355C215.589 31.587 232.24 30.721 248.89 31.3705H249.539C274.622 32.453 298.192 38.948 311.166 61.4642C319.6 75.7533 325.871 93.7229 323.924 111.909C322.411 127.064 315.924 141.137 308.355 153.477C297.111 171.663 281.109 186.386 262.297 195.912C241.322 206.737 223.59 203.056 203.264 196.345C179.045 188.118 152.232 175.993 133.203 154.993C131.905 153.694 130.608 152.178 129.527 150.663C122.391 142.219 116.12 132.91 110.714 123.167C99.2532 101.517 95.361 77.7018 117.633 59.2992Z" stroke="white" stroke-width="0.3" stroke-miterlimit="10"/>
<path d="M95.144 48.9067C107.037 40.2467 121.309 36.7826 135.364 33.7516C153.745 29.8546 172.557 27.0401 191.37 25.3081C210.399 23.7926 229.644 23.3595 248.889 24.2256H249.754C278.514 25.5246 305.976 32.6691 319.383 60.5978C326.951 76.4024 332.141 95.4545 330.195 114.723C328.249 130.311 323.059 145.466 315.058 159.106C302.3 180.54 283.271 197.643 260.566 208.252C235.05 220.159 214.507 214.314 190.937 203.489C164.556 191.365 136.662 175.56 115.254 152.611C113.957 151.095 112.443 149.58 110.929 147.848C102.712 138.755 95.3603 129.012 88.8731 118.62C74.3852 94.805 68.1143 68.3919 95.144 48.9067Z" stroke="white" stroke-width="0.3" stroke-miterlimit="10"/>
<path d="M72.6574 38.2986C86.7128 29.2055 103.363 26.1745 119.797 23.793C140.989 20.5455 162.396 18.3804 184.236 17.0814C206.076 15.7824 227.484 15.9989 249.324 17.0814H250.189C282.841 18.8134 314.411 26.1745 327.602 59.5157C335.17 77.7018 338.198 97.62 336.684 117.322C334.738 133.776 329.764 149.797 321.547 164.302C307.708 189.2 284.138 208.469 258.622 219.943C228.781 232.933 204.995 224.923 178.398 209.984C150.071 193.963 120.878 174.478 97.0922 149.58C95.5786 148.065 94.0649 146.333 92.335 144.601C83.0368 134.858 74.3873 124.25 66.6027 113.208C49.5199 87.8774 40.8704 59.2992 72.6574 38.2986Z" stroke="white" stroke-width="0.3" stroke-miterlimit="10"/>
<path d="M50.3835 27.9066C66.3851 18.164 85.6303 15.7825 104.227 13.834C128.229 11.236 152.448 9.72048 176.666 9.07097C200.885 8.42147 225.104 8.63797 249.322 9.93698H250.404C286.732 11.8855 322.627 19.8961 335.818 58.4333C342.521 78.135 344.9 99.1356 342.953 119.92C341.223 137.24 336.25 154.127 328.033 169.499C312.896 197.86 286.083 219.294 256.891 231.635C222.725 245.924 195.695 235.748 166.071 216.479C135.365 196.778 105.308 173.829 79.3594 146.766L74.1697 141.353C63.7902 130.961 54.0595 119.703 44.9775 108.012C24.6512 80.9495 13.4068 50.2063 50.3835 27.9066Z" stroke="white" stroke-width="0.3" stroke-miterlimit="10"/>
<path d="M249.539 3.00762H250.62C290.84 5.38914 331.277 13.6162 343.818 57.7825C354.198 94.1547 351.819 141.136 334.304 174.91C317.87 206.736 287.38 230.334 254.728 243.541C216.238 259.129 185.965 246.572 153.313 223.19C120.445 199.591 89.5226 173.178 61.1955 144.167C30.7059 113.207 -36.3279 53.669 27.8948 17.5132C46.0588 7.33765 67.6826 5.60564 88.6577 4.09013C142.285 0.409602 195.912 -0.0234012 249.539 3.00762Z" stroke="white" stroke-width="0.3" stroke-miterlimit="10"/>
<path d="M143.92 131.022L139.891 139.869H137.372L108.157 75.4149C107.149 73.14 105.134 71.3707 102.868 70.6124C100.601 69.8542 98.0823 69.6014 95.5637 69.6014H93.5488V69.3486H115.964L143.92 131.022ZM119.994 139.616V139.869H93.8007V139.616C99.5934 139.869 104.631 136.077 106.394 130.769C106.394 130.517 106.394 130.264 106.394 130.011H106.645C106.645 130.264 106.645 130.517 106.645 130.769C108.408 136.33 113.949 140.122 119.994 139.616Z" fill="white"/>
<path d="M168.447 74.6188C168.193 73.1131 167.43 72.1092 166.159 71.3563C163.872 70.6034 161.33 70.3525 159.042 70.6034H158.025V69.5996H191.577V70.3525H189.544C187.002 70.1015 184.715 70.6034 182.173 71.3563C180.902 72.1092 180.139 73.364 180.139 74.8698C179.631 78.6342 179.631 82.3986 179.631 86.163V101.472H207.845V102.977H179.885V122.051C179.885 126.066 179.885 129.83 180.393 133.846C180.648 135.351 181.41 136.606 182.681 137.61C184.715 138.614 187.002 139.116 189.29 138.865H191.832V139.869H158.025V138.865H159.805C162.092 139.116 164.38 138.614 166.668 137.61C167.938 136.606 168.701 135.101 168.955 133.595C169.209 129.83 169.464 126.066 169.464 122.301V86.163C169.209 82.1477 168.955 78.3832 168.447 74.6188ZM215.725 137.108C216.996 136.104 217.758 134.599 218.012 133.093C218.521 129.328 218.521 125.564 218.521 121.8V109.753V94.9467V85.9121C218.775 82.1477 218.521 78.1323 218.012 74.3679C217.758 72.8621 216.996 71.8582 215.725 71.1054C213.437 70.3525 211.15 70.1015 208.608 70.3525H207.337V69.3486H240.635V70.3525H239.364C236.822 70.1015 234.534 70.6034 231.992 71.3563C230.722 72.1092 229.959 73.364 229.705 74.8698C229.196 78.6342 229.196 82.3986 229.196 86.163V122.051C229.196 126.066 229.196 129.83 229.705 133.846C229.959 135.351 230.722 136.606 231.992 137.61C234.026 138.614 236.314 139.116 238.601 138.865H240.635V139.869H207.337V138.865H209.37C211.404 138.614 213.691 138.112 215.725 137.108Z" fill="white"/>
<path d="M271.688 139.869H248.693V139.616H251.726C254 139.869 256.274 139.362 258.296 138.348C259.559 137.587 260.317 136.065 260.57 134.543C261.075 130.486 261.075 126.174 261.075 122.116V86.6095C261.075 82.5516 261.075 78.4937 260.57 74.4358C260.317 72.9141 259.559 71.646 258.296 70.8851C256.021 70.1243 253.494 69.617 250.968 69.8707H248.946V69.617C248.946 69.617 261.833 68.6026 271.688 68.0953V139.869ZM325.258 105.124C325.258 110.196 324.5 115.268 322.731 119.834C321.468 123.891 319.194 127.696 316.161 130.993C313.382 133.783 310.097 135.812 306.306 137.08C302.769 138.348 299.231 139.109 295.693 139.109C292.408 139.362 287.86 139.616 282.301 139.616V139.362H283.312C288.618 139.616 293.925 138.601 298.978 136.826C303.527 134.543 307.064 130.993 309.339 126.428C312.371 120.087 313.634 112.986 313.382 105.885C313.382 100.305 312.624 94.4717 311.107 89.1457C309.591 84.3269 307.064 78.4937 304.285 75.4503C301.505 72.6605 298.22 70.3779 294.43 69.1098C290.64 68.0953 286.597 67.5881 282.301 67.3345C292.914 67.3345 301.253 68.3489 307.317 71.646C313.129 74.6894 317.677 79.2546 320.71 85.0878C323.742 91.4283 325.258 98.276 325.258 105.124Z" fill="white"/>
<path d="M142.9 133.193L148.945 120.097L154.99 107L148.945 120.097L142.9 133.193Z" stroke="white" stroke-width="0.2" stroke-miterlimit="10"/>
<path d="M106.5 133.824V105.616" stroke="white" stroke-width="0.2" stroke-miterlimit="10"/>
</mask>
<g mask="url(#mask0_379:2)">
<rect x="-8.43945" y="0.843262" width="367.963" height="249.843" fill="#C09A5B"/>
</g>
</svg>
