<svg width="111" height="79" viewBox="0 0 111 79" fill="none" xmlns="http://www.w3.org/2000/svg">
<mask id="mask0" style="mask-type:alpha" maskUnits="userSpaceOnUse" x="0" y="0" width="111" height="80">
<path d="M51.4751 25.226C53.231 23.1298 55.3246 21.3718 57.6884 19.9518C60.7275 18.0585 64.0367 16.5709 67.481 15.6919C70.9929 14.7452 74.6398 14.3395 78.3543 14.4071H78.4893C83.9597 14.4747 89.2275 16.0976 92.8069 19.9518C96.1161 23.4679 98.4799 28.404 98.0071 33.4754C97.6019 37.6677 95.3732 41.4543 93.0095 44.8352C90.5107 48.4189 87.404 51.5294 83.8246 54.0312C79.9751 56.6007 76.1931 57.2769 72.0059 57.3445C65.5225 57.4797 58.026 55.5864 53.5687 50.2446C53.2985 49.9065 52.9609 49.5008 52.6907 49.0951C51.1374 46.8637 49.8542 44.3619 49.0438 41.7924C47.2203 36.1801 47.4905 30.1621 51.4751 25.226Z" stroke="white" stroke-width="0.3" stroke-miterlimit="10"/>
<path d="M44.4506 22.3863C46.8819 20.0197 49.7859 18.5997 52.7575 17.315C56.7421 15.6245 60.8617 14.3398 65.1165 13.596C69.5063 12.7846 73.8961 12.4465 78.3535 12.5817H78.5561C85.1746 12.7846 91.4554 14.6103 95.3724 20.0873C98.2765 24.1444 100.505 29.351 99.9649 34.7604C99.4921 39.2232 97.3985 43.2803 95.0348 46.9316C92.0632 51.5296 88.0111 55.3839 83.216 58.1562C78.0158 61.1314 73.3558 60.8609 68.088 59.9143C61.0643 58.6295 53.0951 55.8572 47.8949 49.9068C47.5572 49.5011 47.2195 49.0954 46.8819 48.6897C44.9909 46.2554 43.37 43.6183 42.1544 40.7784C39.4529 34.4899 38.9802 27.7281 44.4506 22.3863Z" stroke="white" stroke-width="0.3" stroke-miterlimit="10"/>
<path d="M37.4271 19.2078C40.4662 16.7059 44.1807 15.4212 47.8951 14.3393C52.7577 12.8517 57.7553 11.7698 62.8205 11.1612C68.0208 10.5527 73.221 10.2822 78.4212 10.4851H78.6239C86.458 10.8231 93.8194 12.8517 97.8715 19.884C100.505 24.3467 102.464 29.959 101.856 35.6389C101.383 40.3722 99.3573 44.7674 96.9935 48.6216C93.4817 54.3015 88.4841 58.8995 82.6085 61.8747C76.0575 65.2556 70.5196 64.1061 64.1712 62.0099C56.6072 59.4405 48.2328 55.6538 42.2897 49.0949C41.8845 48.6892 41.4793 48.2159 41.1416 47.7425C38.9129 45.1054 36.9544 42.1979 35.266 39.1551C31.6866 32.3933 30.471 24.9553 37.4271 19.2078Z" stroke="white" stroke-width="0.3" stroke-miterlimit="10"/>
<path d="M30.4034 15.9625C34.1178 13.2578 38.5752 12.1759 42.965 11.2293C48.7055 10.0121 54.5811 9.13309 60.4567 8.59215C66.3998 8.11883 72.4105 7.98359 78.4212 8.25406H78.6913C87.6736 8.65977 96.2506 10.8912 100.438 19.6139C102.802 24.55 104.422 30.5004 103.815 36.5184C103.207 41.3869 101.586 46.1201 99.0871 50.38C95.1025 57.0742 89.1594 62.416 82.0681 65.7293C74.0989 69.4483 67.683 67.6226 60.3216 64.2417C52.0823 60.4551 43.3702 55.519 36.6842 48.3515C36.279 47.8782 35.8062 47.4048 35.3335 46.8639C32.7671 44.024 30.4709 40.9811 28.4448 37.7355C23.9199 30.2975 21.9614 22.0481 30.4034 15.9625Z" stroke="white" stroke-width="0.3" stroke-miterlimit="10"/>
<path d="M23.3802 12.6492C27.77 9.80927 32.9702 8.86262 38.1029 8.11882C44.7214 7.10455 51.4075 6.42837 58.2286 6.02266C65.0497 5.61695 71.7357 5.68457 78.5568 6.02266H78.8269C89.0248 6.56361 98.885 8.86262 103.005 19.2758C105.368 24.9557 106.314 31.1765 105.841 37.3298C105.233 42.4687 103.68 47.4725 101.114 52.0029C96.7914 59.7789 89.43 65.7969 81.4608 69.3807C72.1409 73.4377 64.712 70.9359 56.4051 66.2702C47.5579 61.2665 38.4406 55.1809 31.0117 47.4048C30.539 46.9315 30.0662 46.3906 29.5259 45.8496C26.6219 42.8068 23.9205 39.4935 21.4892 36.045C16.1539 28.1337 13.4524 19.2082 23.3802 12.6492Z" stroke="white" stroke-width="0.3" stroke-miterlimit="10"/>
<path d="M16.4234 9.4032C21.421 6.36039 27.4317 5.61659 33.2397 5.00803C40.7362 4.19662 48.3002 3.72329 55.8642 3.52044C63.4282 3.31758 70.9921 3.3852 78.5561 3.79091H78.8938C90.2398 4.39947 101.451 6.90134 105.57 18.9373C107.664 25.0906 108.407 31.6495 107.799 38.1408C107.259 43.5503 105.705 48.8245 103.139 53.6253C98.4116 62.4833 90.0372 69.1775 80.9199 73.0317C70.2492 77.4945 61.8073 74.3164 52.5549 68.2984C42.9649 62.1452 33.5774 54.9777 25.4731 46.5255L23.8523 44.835C20.6106 41.5893 17.5715 38.0732 14.735 34.4218C8.38662 25.9696 4.87476 16.3678 16.4234 9.4032Z" stroke="white" stroke-width="0.3" stroke-miterlimit="10"/>
<path d="M78.6238 1.62702H78.9615C91.5231 2.37082 104.152 4.9403 108.069 18.7344C111.311 30.0942 110.568 44.7673 105.098 55.3157C99.9651 65.2555 90.4426 72.6259 80.2447 76.7506C68.2233 81.6191 58.7684 77.6972 48.5705 70.3945C38.3051 63.0241 28.6475 54.7747 19.8003 45.7139C10.2778 36.0446 -10.6583 17.4496 9.39981 6.15742C15.0728 2.97938 21.8264 2.43844 28.3773 1.96511C45.1262 0.815606 61.875 0.68037 78.6238 1.62702Z" stroke="white" stroke-width="0.3" stroke-miterlimit="10"/>
<path d="M45.6374 41.6086L44.3788 44.3716H43.5922L34.4676 24.2413C34.1529 23.5308 33.5237 22.9782 32.8157 22.7414C32.1078 22.5046 31.3212 22.4256 30.5346 22.4256H29.9053V22.3467H36.9061L45.6374 41.6086ZM38.1646 44.2927V44.3716H29.9839V44.2927C31.7931 44.3716 33.3663 43.1875 33.917 41.5297C33.917 41.4507 33.917 41.3718 33.917 41.2928H33.9956C33.9956 41.3718 33.9956 41.4507 33.9956 41.5297C34.5462 43.2664 36.2768 44.4505 38.1646 44.2927Z" fill="white"/>
<path d="M53.2968 23.9927C53.2175 23.5224 52.9793 23.2089 52.5824 22.9737C51.8679 22.7386 51.074 22.6602 50.3595 22.7386H50.042V22.4251H60.521V22.6602H59.8859C59.092 22.5818 58.3776 22.7386 57.5837 22.9737C57.1868 23.2089 56.9486 23.6008 56.9486 24.0711C56.7898 25.2468 56.7898 26.4225 56.7898 27.5982V32.3794H65.6017V32.8497H56.8692V38.8066C56.8692 40.0607 56.8692 41.2364 57.028 42.4905C57.1074 42.9607 57.3455 43.3526 57.7425 43.6662C58.3776 43.9797 59.092 44.1365 59.8065 44.0581H60.6004V44.3716H50.042V44.0581H50.5977C51.3122 44.1365 52.0266 43.9797 52.7411 43.6662C53.1381 43.3526 53.3762 42.8824 53.4556 42.4121C53.535 41.2364 53.6144 40.0607 53.6144 38.885V27.5982C53.535 26.3441 53.4556 25.1684 53.2968 23.9927ZM68.0627 43.5094C68.4597 43.1959 68.6978 42.7256 68.7772 42.2553C68.936 41.0796 68.936 39.9039 68.936 38.7282V34.9659V30.3415V27.5198C69.0154 26.3441 68.936 25.09 68.7772 23.9143C68.6978 23.444 68.4597 23.1305 68.0627 22.8953C67.3482 22.6602 66.6338 22.5818 65.8399 22.6602H65.443V22.3467H75.8426V22.6602H75.4457C74.6518 22.5818 73.9373 22.7386 73.1435 22.9737C72.7465 23.2089 72.5084 23.6008 72.429 24.0711C72.2702 25.2468 72.2702 26.4225 72.2702 27.5982V38.8066C72.2702 40.0607 72.2702 41.2364 72.429 42.4905C72.5084 42.9607 72.7465 43.3526 73.1435 43.6662C73.7786 43.9797 74.493 44.1365 75.2075 44.0581H75.8426V44.3716H65.443V44.0581H66.0781C66.7132 43.9797 67.4276 43.8229 68.0627 43.5094Z" fill="white"/>
<path d="M85.5411 44.372H78.3594V44.2928H79.3064C80.0167 44.372 80.727 44.2136 81.3583 43.8967C81.7529 43.6591 81.9897 43.1838 82.0686 42.7086C82.2265 41.4412 82.2264 40.0946 82.2264 38.8272V27.7378C82.2264 26.4704 82.2265 25.203 82.0686 23.9357C81.9897 23.4604 81.7529 23.0644 81.3583 22.8267C80.6481 22.5891 79.8588 22.4307 79.0696 22.5099H78.4383V22.4307C78.4383 22.4307 82.4632 22.1138 85.5411 21.9554V44.372ZM102.272 33.5201C102.272 35.1043 102.035 36.6886 101.483 38.1143C101.088 39.3817 100.378 40.5699 99.431 41.5996C98.5629 42.4709 97.5369 43.1046 96.3531 43.5007C95.2483 43.8967 94.1434 44.1343 93.0385 44.1343C92.0125 44.2136 90.592 44.2928 88.8557 44.2928V44.2136H89.1714C90.8287 44.2928 92.486 43.9759 94.0644 43.4214C95.485 42.7086 96.5899 41.5996 97.3002 40.1738C98.2472 38.1936 98.6418 35.9757 98.5629 33.7578C98.5629 32.0151 98.3261 30.1933 97.8526 28.5299C97.3791 27.0249 96.5899 25.203 95.7218 24.2525C94.8537 23.3812 93.8277 22.6683 92.6439 22.2722C91.4601 21.9554 90.1974 21.797 88.8557 21.7178C92.1704 21.7178 94.7747 22.0346 96.6688 23.0643C98.484 24.0149 99.9045 25.4407 100.852 27.2625C101.799 29.2428 102.272 31.3815 102.272 33.5201Z" fill="white"/>
<path d="M45.6367 41.8545L47.5246 37.7642L49.4124 33.6738L47.5246 37.7642L45.6367 41.8545Z" stroke="white" stroke-width="0.2" stroke-miterlimit="10"/>
<path d="M34.3105 42.4838V33.6738" stroke="white" stroke-width="0.2" stroke-miterlimit="10"/>
</mask>
<g mask="url(#mask0)">
<rect x="-1.94824" y="0.951172" width="114.923" height="78.0311" fill="#C09A5B"/>
</g>
</svg>
