<svg width="22" height="22" viewBox="0 0 22 22" fill="none" xmlns="http://www.w3.org/2000/svg">
<g clip-path="url(#clip0_526:26)">
<path d="M6.05534 9.0495C6.79601 10.3886 7.64841 11.6773 8.75414 12.852C9.86488 14.0324 11.2402 15.1081 13.0286 16.02L13.0304 16.0209L13.0308 16.02C13.1611 16.0867 13.2852 16.0851 13.4017 16.0412C13.5708 15.9777 13.7467 15.8366 13.9179 15.6659C14.0484 15.5352 14.2121 15.3197 14.389 15.0859C15.0775 14.1765 15.9288 13.0525 17.1307 13.6117C17.1561 13.6234 17.1801 13.6371 17.2027 13.6524L21.2083 15.9649C21.2226 15.9732 21.2364 15.982 21.2495 15.9914C21.7805 16.3577 21.9973 16.922 21.9996 17.5537C22.0021 18.2053 21.7617 18.9345 21.4134 19.5512C20.9542 20.3639 20.2699 20.901 19.4868 21.265C18.7403 21.612 17.9117 21.7966 17.1116 21.9142C15.8603 22.0987 14.6806 21.9815 13.4793 21.6098C12.3066 21.2469 11.1203 20.6409 9.82692 19.8356L9.73275 19.777C9.13727 19.4063 8.49632 19.0076 7.87274 18.5347C5.56944 16.7876 3.22388 14.2661 1.70296 11.4989C0.422675 9.16951 -0.277895 6.65709 0.10399 4.26145C0.313283 2.94685 0.877427 1.75353 1.84995 0.963081C2.70252 0.269795 3.85301 -0.105727 5.33185 0.026884C5.50606 0.0419985 5.65287 0.141862 5.73558 0.28221L5.73666 0.281671L8.30117 4.64867C8.67894 5.13773 8.72084 5.62301 8.51655 6.10542C8.34772 6.50451 7.99878 6.87032 7.53615 7.21525C7.39543 7.33221 7.23036 7.45366 7.06009 7.5789C6.48753 8.00012 5.83262 8.48181 6.05534 9.0495ZM7.99753 13.5714C6.81517 12.3151 5.91444 10.9548 5.13742 9.54864C5.12381 9.5265 5.11164 9.50311 5.10126 9.47846C4.53299 8.13633 5.55243 7.38673 6.44278 6.73231C6.59406 6.62111 6.74051 6.51333 6.87264 6.40321L6.873 6.40375C6.8807 6.39727 6.88876 6.39097 6.89717 6.38485C7.22713 6.14122 7.46489 5.90857 7.55567 5.69445C7.60741 5.57227 7.58825 5.43786 7.47224 5.2869C7.45236 5.26369 7.4341 5.23814 7.41799 5.21078L4.97629 1.05341C3.92552 1.01004 3.11091 1.2911 2.50845 1.78106C1.74951 2.39806 1.30479 3.3571 1.13452 4.42591C0.793459 6.56605 1.44175 8.85121 2.61909 10.9935C4.06535 13.6247 6.30277 16.0275 8.50295 17.6961C9.10791 18.1549 9.7161 18.5333 10.2811 18.8849L10.3753 18.9435C11.596 19.7034 12.7058 20.2725 13.7863 20.6068C14.8383 20.9323 15.8692 21.0351 16.9605 20.8742C17.6782 20.7686 18.413 20.607 19.0494 20.3112C19.6494 20.0323 20.1681 19.6302 20.5057 19.033C20.7736 18.5585 20.9587 18.0158 20.9571 17.5535C20.956 17.2603 20.8726 17.0085 20.6697 16.8619L16.6862 14.5625C16.2456 14.368 15.6784 15.1169 15.2193 15.7231C15.0217 15.9843 14.8389 16.2254 14.6543 16.4099C14.3898 16.6737 14.096 16.8998 13.7659 17.0236C13.3835 17.1674 12.979 17.1737 12.5565 16.9571L12.5569 16.9563C10.6566 15.9874 9.18866 14.8373 7.99753 13.5714Z" fill="#C09A5B"/>
</g>
<defs>
<clipPath id="clip0_526:26">
<rect width="22" height="22" fill="white"/>
</clipPath>
</defs>
</svg>
