<svg width="660" height="440" viewBox="0 0 660 440" fill="none" xmlns="http://www.w3.org/2000/svg">
<mask id="mask0_176:457" style="mask-type:alpha" maskUnits="userSpaceOnUse" x="0" y="0" width="660" height="440">
<path d="M306.025 137.202C316.636 125.417 329.288 115.533 343.572 107.55C361.938 96.9052 381.936 88.5417 402.75 83.5996C423.973 78.2773 446.012 75.9964 468.459 76.3765H469.275C502.333 76.7567 534.167 85.8806 555.798 107.55C575.796 127.318 590.08 155.07 587.224 183.582C584.775 207.152 571.307 228.441 557.022 247.449C541.922 267.598 523.148 285.085 501.517 299.151C478.254 313.597 455.399 317.399 430.095 317.779C390.915 318.539 345.613 307.895 318.676 277.862C317.044 275.961 315.003 273.68 313.371 271.399C303.984 258.854 296.229 244.788 291.332 230.342C280.313 198.788 281.945 164.954 306.025 137.202Z" stroke="white" stroke-width="0.3" stroke-miterlimit="10"/>
<path d="M263.582 121.237C278.275 107.931 295.824 99.948 313.782 92.7249C337.861 83.2209 362.757 75.9978 388.469 71.816C414.997 67.2541 441.525 65.3533 468.461 66.1136H469.686C509.682 67.2541 547.638 77.5184 571.309 108.312C588.859 131.121 602.327 160.394 599.062 190.807C596.205 215.897 583.553 238.707 569.269 259.236C551.311 285.087 526.824 306.756 497.847 322.342C466.421 339.069 438.26 337.549 406.426 332.226C363.981 325.003 315.822 309.417 284.397 275.963C282.356 273.682 280.315 271.401 278.275 269.12C266.847 255.434 257.052 240.608 249.706 224.641C233.381 189.286 230.524 151.27 263.582 121.237Z" stroke="white" stroke-width="0.3" stroke-miterlimit="10"/>
<path d="M221.134 103.369C239.499 89.3029 261.946 82.0798 284.393 75.9972C313.778 67.6337 343.98 61.5511 374.589 58.1297C406.015 54.7082 437.441 53.1876 468.866 54.328H470.091C517.433 56.2289 561.919 67.6337 586.407 107.17C602.324 132.261 614.159 163.814 610.486 195.748C607.629 222.359 595.385 247.07 581.101 268.739C559.878 300.672 529.677 326.523 494.17 343.25C454.582 362.259 421.116 355.796 382.752 344.011C337.041 329.565 286.434 308.276 250.519 271.4C248.07 269.119 245.621 266.458 243.581 263.797C230.112 248.971 218.277 232.624 208.074 215.516C186.443 177.5 179.097 135.683 221.134 103.369Z" stroke="white" stroke-width="0.3" stroke-miterlimit="10"/>
<path d="M178.688 85.1207C201.135 69.9143 228.071 63.8317 254.599 58.5094C289.29 51.6665 324.797 46.7244 360.304 43.6832C396.219 41.022 432.542 40.2617 468.865 41.7823H470.498C524.779 44.0633 576.611 56.6086 601.915 105.649C616.199 133.401 625.994 166.855 622.321 200.69C618.648 228.061 608.853 254.673 593.752 278.623C569.673 316.259 533.758 346.291 490.904 364.919C442.745 385.828 403.973 375.564 359.488 356.556C309.696 335.267 257.048 307.515 216.643 267.218C214.195 264.557 211.338 261.896 208.481 258.854C192.972 242.888 179.096 225.78 166.852 207.533C139.508 165.715 127.672 119.335 178.688 85.1207Z" stroke="white" stroke-width="0.3" stroke-miterlimit="10"/>
<path d="M136.242 66.4937C162.77 50.5269 194.196 45.2047 225.213 41.0229C265.21 35.3205 305.614 31.5189 346.835 29.2379C388.056 26.9569 428.46 27.3371 469.681 29.2379H471.313C532.94 32.2792 592.527 45.2047 617.423 103.749C631.707 135.683 637.421 170.658 634.564 205.253C630.891 234.145 621.504 262.277 605.995 287.747C579.875 331.466 535.389 365.3 487.23 385.449C430.909 408.259 386.015 394.193 335.815 367.961C282.351 339.83 227.254 305.615 182.36 261.897C179.503 259.235 176.646 256.194 173.381 253.153C155.832 236.046 139.507 217.418 124.814 198.029C92.5722 153.551 76.2472 103.369 136.242 66.4937Z" stroke="white" stroke-width="0.3" stroke-miterlimit="10"/>
<path d="M94.2066 48.2461C124.408 31.1389 160.731 26.9571 195.83 23.5356C241.132 18.9737 286.842 16.3126 332.552 15.1721C378.262 14.0316 423.973 14.4118 469.683 16.6927L471.723 16.6927C540.289 20.1142 608.038 34.1801 632.933 101.849C645.585 136.444 650.075 173.319 646.401 209.815C643.136 240.228 633.75 269.88 618.241 296.872C589.672 346.673 539.064 384.309 483.967 405.978C419.483 431.068 368.467 413.201 312.554 379.366C254.6 344.772 197.871 304.475 148.895 256.955L139.1 247.451C119.51 229.203 101.145 209.434 84.0034 188.906C45.6395 141.386 24.417 87.4027 94.2066 48.2461Z" stroke="white" stroke-width="0.3" stroke-miterlimit="10"/>
<path d="M470.09 4.52524L472.131 4.52524C548.043 8.70701 624.362 23.1531 648.034 100.706C667.624 164.573 663.134 247.068 630.076 306.373C599.058 362.257 541.513 403.694 479.886 426.884C407.239 454.256 350.101 432.206 288.474 391.149C226.439 349.711 168.077 303.332 114.613 252.39C57.0667 198.027 -69.4524 93.4829 51.7611 29.996C86.0437 12.1285 126.856 9.08717 166.445 6.42604C267.66 -0.0366973 368.875 -0.797019 470.09 4.52524Z" stroke="white" stroke-width="0.3" stroke-miterlimit="10"/>
</mask>
<g mask="url(#mask0_176:457)">
<rect x="-42" y="-29" width="799" height="478" fill="#C09A5B" fill-opacity="0.5"/>
</g>
</svg>
