<svg width="636" height="455" viewBox="0 0 636 455" fill="none" xmlns="http://www.w3.org/2000/svg">
<mask id="mask0" style="mask-type:alpha" maskUnits="userSpaceOnUse" x="0" y="0" width="636" height="455">
<path d="M294.589 141.911C304.802 129.719 316.979 119.493 330.728 111.234C348.405 100.221 367.653 91.5685 387.687 86.4556C408.114 80.9494 429.326 78.5896 450.932 78.9829H451.717C483.536 79.3762 514.176 88.8154 534.996 111.234C554.244 131.685 567.993 160.396 565.243 189.894C562.886 214.278 549.923 236.303 536.174 255.968C521.64 276.813 503.57 294.905 482.75 309.457C460.359 324.403 438.361 328.336 414.006 328.729C376.295 329.515 332.692 318.503 306.766 287.432C305.195 285.466 303.231 283.106 301.659 280.746C292.624 267.767 285.161 253.215 280.447 238.27C269.841 205.626 271.412 170.622 294.589 141.911Z" stroke="white" stroke-width="0.3" stroke-miterlimit="10"/>
<path d="M253.734 125.393C267.876 111.627 284.767 103.368 302.051 95.8952C325.227 86.0626 349.19 78.5899 373.937 74.2636C399.471 69.544 425.004 67.5775 450.931 68.3641H452.109C490.606 69.544 527.138 80.1631 549.922 112.02C566.813 135.619 579.776 165.903 576.634 197.367C573.884 223.325 561.706 246.923 547.958 268.161C530.673 294.905 507.104 317.323 479.214 333.449C448.966 350.754 421.862 349.181 391.222 343.675C350.368 336.202 304.015 320.077 273.768 285.466C271.804 283.106 269.84 280.746 267.875 278.387C256.876 264.228 247.449 248.889 240.378 232.371C224.665 195.794 221.915 156.463 253.734 125.393Z" stroke="white" stroke-width="0.3" stroke-miterlimit="10"/>
<path d="M212.88 106.908C230.557 92.3555 252.162 84.8827 273.768 78.5899C302.051 69.9373 331.12 63.6445 360.581 60.1048C390.829 56.5651 421.076 54.9919 451.323 56.1718H452.502C498.069 58.1383 540.887 69.9373 564.456 110.841C579.776 136.798 591.168 169.442 587.632 202.48C584.883 230.011 573.098 255.575 559.349 277.993C538.922 311.031 509.854 337.775 475.678 355.08C437.574 374.745 405.363 368.059 368.438 355.867C324.442 340.922 275.732 318.897 241.163 280.747C238.807 278.387 236.45 275.634 234.485 272.88C221.522 257.542 210.13 240.63 200.31 222.931C179.49 183.601 172.42 140.338 212.88 106.908Z" stroke="white" stroke-width="0.3" stroke-miterlimit="10"/>
<path d="M172.026 88.0285C193.631 72.2964 219.557 66.0036 245.091 60.4974C278.481 53.418 312.656 48.3051 346.832 45.1587C381.4 42.4056 416.361 41.619 451.322 43.1922H452.894C505.139 45.552 555.027 58.5309 579.382 109.267C593.131 137.978 602.559 172.588 599.023 207.592C595.488 235.91 586.06 263.441 571.526 288.219C548.349 327.155 513.781 358.226 472.535 377.498C426.182 399.129 388.864 388.51 346.046 368.845C298.122 346.82 247.448 318.109 208.558 276.42C206.201 273.666 203.452 270.913 200.702 267.767C185.775 251.248 172.419 233.55 160.634 214.671C134.315 171.408 122.923 123.426 172.026 88.0285Z" stroke="white" stroke-width="0.3" stroke-miterlimit="10"/>
<path d="M131.172 68.7575C156.705 52.2389 186.953 46.7327 216.807 42.4064C255.304 36.5069 294.193 32.5739 333.868 30.2141C373.543 27.8543 412.432 28.2476 452.107 30.2141H453.679C512.995 33.3605 570.347 46.7327 594.309 107.301C608.058 140.338 613.557 176.522 610.807 212.312C607.272 242.203 598.237 271.307 583.31 297.659C558.169 342.888 515.352 377.892 468.999 398.737C414.789 422.335 371.579 407.783 323.262 380.645C271.802 351.541 218.771 316.144 175.561 270.914C172.811 268.161 170.061 265.015 166.919 261.868C150.027 244.17 134.314 224.898 120.173 204.84C89.14 158.823 73.4271 106.908 131.172 68.7575Z" stroke="white" stroke-width="0.3" stroke-miterlimit="10"/>
<path d="M90.7112 49.8793C119.78 32.1807 154.741 27.8544 188.524 24.3147C232.127 19.5951 276.123 16.842 320.119 15.6621C364.115 14.4822 408.111 14.8755 452.107 17.2353H454.071C520.066 20.775 585.274 35.3272 609.236 105.335C621.414 141.125 625.735 179.275 622.199 217.032C619.057 248.496 610.022 279.174 595.095 307.098C567.597 358.62 518.887 397.557 465.856 419.975C403.79 445.933 354.687 427.448 300.871 392.444C245.09 356.654 190.488 314.964 143.349 265.801L133.922 255.969C115.066 237.09 97.3891 216.639 80.8906 195.401C43.9654 146.238 23.5386 90.3893 90.7112 49.8793Z" stroke="white" stroke-width="0.3" stroke-miterlimit="10"/>
<path d="M452.5 4.64708H454.464C527.529 8.97339 600.987 23.9188 623.77 104.152C642.626 170.227 638.305 255.573 606.486 316.928C576.632 374.743 521.244 417.613 461.928 441.604C392.005 469.922 337.01 447.11 277.694 404.634C217.985 361.764 161.812 313.781 110.352 261.079C54.9643 204.837 -66.8105 96.6795 49.8576 30.9982C82.8547 12.5131 122.137 9.36669 160.241 6.61358C257.66 -0.072529 355.08 -0.85913 452.5 4.64708Z" stroke="white" stroke-width="0.3" stroke-miterlimit="10"/>
</mask>
<g mask="url(#mask0)">
<rect x="-16.1484" y="0.715332" width="668.449" height="453.869" fill="#C09A5B"/>
</g>
</svg>
