<svg width="24" height="24" viewBox="0 0 24 24" fill="none" xmlns="http://www.w3.org/2000/svg">
<path fill-rule="evenodd" clip-rule="evenodd" d="M24 3C24 1.34423 22.6558 0 21 0H3C1.34423 0 0 1.34423 0 3V21C0 22.6558 1.34423 24 3 24H21C22.6558 24 24 22.6558 24 21V3Z" fill="#B29E75"/>
<path d="M6.87938 8.37305H2.85938V20.465H6.87938V8.37305Z" fill="white"/>
<path d="M4.899 2.54297C3.52364 2.54297 2.625 3.44719 2.625 4.63233C2.625 5.79258 3.49631 6.72173 4.8458 6.72173H4.87177C6.27347 6.72173 7.14595 5.79258 7.14595 4.63233C7.11994 3.44719 6.27356 2.54297 4.899 2.54297Z" fill="white"/>
<path d="M16.7585 8.08887C14.6261 8.08887 13.671 9.26154 13.1362 10.0852V8.37321H9.11719C9.17048 9.50745 9.11719 20.4651 9.11719 20.4651H13.1361V13.7121C13.1361 13.3507 13.1621 12.9893 13.2686 12.731C13.5587 12.0091 14.2204 11.2614 15.3308 11.2614C16.7845 11.2614 17.3669 12.3706 17.3669 13.9954V20.4651H21.386V13.5309C21.386 9.81668 19.4029 8.08887 16.7585 8.08887Z" fill="white"/>
</svg>
