<svg width="61" height="44" viewBox="0 0 61 44" fill="none" xmlns="http://www.w3.org/2000/svg">
<mask id="mask0_196:25" style="mask-type:alpha" maskUnits="userSpaceOnUse" x="0" y="0" width="61" height="44">
<path d="M28.3211 14.1134C29.2716 12.9788 30.4048 12.0272 31.6842 11.2586C33.3293 10.2338 35.1205 9.42854 36.9849 8.95274C38.8858 8.44033 40.8598 8.22073 42.8704 8.25733H42.9435C45.9045 8.29393 48.7559 9.17234 50.6934 11.2586C52.4846 13.1618 53.7641 15.8336 53.5082 18.5787C53.2888 20.8479 52.0825 22.8975 50.803 24.7276C49.4505 26.6674 47.7689 28.351 45.8314 29.7052C43.7477 31.0961 41.7006 31.4621 39.4341 31.4987C35.9247 31.5719 31.867 30.5471 29.4543 27.6556C29.3081 27.4726 29.1253 27.253 28.9791 27.0334C28.1383 25.8256 27.4438 24.4714 27.0051 23.0805C26.0181 20.0427 26.1643 16.7853 28.3211 14.1134Z" stroke="#B29E75" stroke-width="0.1" stroke-miterlimit="10"/>
<path d="M24.519 12.5767C25.835 11.2957 27.4069 10.527 29.0154 9.83163C31.1722 8.91662 33.4021 8.22121 35.7051 7.8186C38.0812 7.37939 40.4574 7.19639 42.8701 7.26959H42.9797C46.5622 7.37939 49.9619 8.36761 52.0822 11.3323C53.6541 13.5283 54.8604 16.3465 54.568 19.2746C54.3121 21.6902 53.1789 23.8862 51.8994 25.8627C50.2909 28.3515 48.0976 30.4377 45.5021 31.9384C42.6873 33.5488 40.1649 33.4024 37.3136 32.89C33.5117 32.1946 29.1981 30.6939 26.3833 27.4731C26.2005 27.2535 26.0178 27.0339 25.835 26.8143C24.8114 25.4967 23.9341 24.0692 23.2761 22.532C21.8138 19.1282 21.5579 15.4681 24.519 12.5767Z" stroke="#B29E75" stroke-width="0.1" stroke-miterlimit="10"/>
<path d="M20.7175 10.8554C22.3625 9.5012 24.3731 8.80579 26.3837 8.22018C29.0157 7.41497 31.7209 6.82936 34.4626 6.49995C37.2774 6.17055 40.0922 6.02415 42.907 6.13395H43.0167C47.2572 6.31695 51.2418 7.41497 53.4351 11.2214C54.8608 13.6371 55.9209 16.6749 55.5919 19.7494C55.336 22.3114 54.2393 24.6904 52.9599 26.7767C51.059 29.8511 48.3538 32.3399 45.1735 33.9504C41.6275 35.7804 38.6299 35.1582 35.1937 34.0236C31.0994 32.6327 26.5665 30.5831 23.3495 27.0329C23.1302 26.8133 22.9109 26.5571 22.7281 26.3008C21.5217 24.8734 20.4616 23.2996 19.5477 21.6526C17.6103 17.9925 16.9522 13.9665 20.7175 10.8554Z" stroke="#B29E75" stroke-width="0.1" stroke-miterlimit="10"/>
<path d="M16.9155 9.09962C18.9261 7.6356 21.3388 7.04999 23.7149 6.53758C26.8222 5.87877 30.0026 5.40296 33.1829 5.11016C36.3998 4.85395 39.6533 4.78075 42.9068 4.92716H43.053C47.915 5.14676 52.5576 6.35458 54.8241 11.076C56.1035 13.7479 56.9809 16.9687 56.6519 20.2262C56.3229 22.8614 55.4455 25.4235 54.0929 27.7293C51.9361 31.3527 48.7192 34.2442 44.8808 36.0376C40.5672 38.0506 37.0944 37.0624 33.1098 35.2324C28.65 33.1828 23.9343 30.5109 20.3152 26.6313C20.0959 26.3751 19.84 26.1189 19.5841 25.8261C18.195 24.2888 16.9521 22.6418 15.8554 20.885C13.4061 16.8589 12.346 12.3937 16.9155 9.09962Z" stroke="#B29E75" stroke-width="0.1" stroke-miterlimit="10"/>
<path d="M13.1135 7.30552C15.4897 5.7683 18.3045 5.25589 21.0827 4.85329C24.6652 4.30428 28.2843 3.93827 31.9764 3.71867C35.6686 3.49907 39.2876 3.53567 42.9798 3.71867H43.126C48.6459 4.01147 53.9831 5.25589 56.213 10.8924C57.4925 13.9668 58.0043 17.3341 57.7484 20.6647C57.4194 23.4464 56.5786 26.1548 55.1895 28.607C52.8499 32.8161 48.8653 36.0735 44.5517 38.0134C39.507 40.2094 35.4858 38.8552 30.9894 36.3297C26.2006 33.6213 21.2655 30.3273 17.2444 26.1182C16.9885 25.862 16.7326 25.5692 16.4401 25.2764C14.8682 23.6294 13.406 21.8359 12.09 19.9693C9.20205 15.687 7.73981 10.8558 13.1135 7.30552Z" stroke="#B29E75" stroke-width="0.1" stroke-miterlimit="10"/>
<path d="M9.34853 5.5484C12.0537 3.90138 15.3072 3.49877 18.451 3.16937C22.5087 2.73016 26.603 2.47396 30.6972 2.36416C34.7915 2.25436 38.8858 2.29096 42.98 2.51056H43.1628C49.3042 2.83996 55.3725 4.19418 57.6024 10.7091C58.7357 14.0397 59.1378 17.59 58.8088 21.1036C58.5163 24.0317 57.6755 26.8865 56.2864 29.4852C53.7275 34.2798 49.1946 37.9033 44.2595 39.9895C38.4837 42.4052 33.9142 40.6849 28.906 37.4275C23.715 34.0968 18.6338 30.2172 14.247 25.6421L13.3697 24.7271C11.615 22.9703 9.96998 21.067 8.43463 19.0906C4.99837 14.5155 3.09746 9.31826 9.34853 5.5484Z" stroke="#B29E75" stroke-width="0.1" stroke-miterlimit="10"/>
<path d="M43.0166 1.3394H43.1993C49.9988 1.742 56.8347 3.13282 58.955 10.5993C60.7097 16.7482 60.3075 24.6905 57.3465 30.4002C54.5683 35.7805 49.4139 39.77 43.8939 42.0026C37.3869 44.6378 32.2691 42.515 26.7492 38.5621C21.1926 34.5727 15.9651 30.1074 11.1763 25.2029C6.02191 19.9691 -5.31044 9.90392 5.54669 3.79163C8.61739 2.07141 12.273 1.7786 15.8189 1.5224C24.8848 0.900191 33.9507 0.826989 43.0166 1.3394Z" stroke="#B29E75" stroke-width="0.1" stroke-miterlimit="10"/>
<path d="M25.1615 22.9801L24.4803 24.4757H24.0545L19.1155 13.5795C18.9452 13.1949 18.6046 12.8958 18.2214 12.7676C17.8382 12.6394 17.4124 12.5967 16.9866 12.5967H16.646V12.554H20.4354L25.1615 22.9801ZM21.1167 24.433V24.4757H16.6886V24.433C17.6679 24.4757 18.5194 23.8347 18.8175 22.9374C18.8175 22.8947 18.8175 22.8519 18.8175 22.8092H18.86C18.86 22.8519 18.86 22.8947 18.86 22.9374C19.1581 23.8775 20.0948 24.5184 21.1167 24.433Z" fill="#C09A5B"/>
<path d="M29.3072 13.4449C29.2642 13.1903 29.1353 13.0206 28.9205 12.8934C28.5337 12.7661 28.104 12.7237 27.7173 12.7661H27.5454V12.5964L33.2175 12.5964V12.7237L32.8738 12.7237C32.4441 12.6812 32.0573 12.7661 31.6276 12.8934C31.4128 13.0206 31.2839 13.2328 31.2839 13.4873C31.1979 14.1237 31.1979 14.7601 31.1979 15.3965V17.9845H35.9677V18.2391H31.2409V21.4634C31.2409 22.1423 31.2409 22.7787 31.3268 23.4575C31.3698 23.712 31.4987 23.9242 31.7136 24.0939C32.0573 24.2636 32.4441 24.3484 32.8308 24.306H33.2605V24.4757H27.5454V24.306H27.8462C28.2329 24.3484 28.6197 24.2636 29.0064 24.0939C29.2213 23.9242 29.3502 23.6696 29.3931 23.415C29.4361 22.7787 29.4791 22.1423 29.4791 21.5059V15.3965C29.4361 14.7177 29.3931 14.0813 29.3072 13.4449ZM37.2998 24.009C37.5146 23.8393 37.6435 23.5847 37.6865 23.3302C37.7724 22.6938 37.7724 22.0574 37.7724 21.421V19.3846V16.8814V15.3541C37.8154 14.7177 37.7724 14.0389 37.6865 13.4025C37.6435 13.1479 37.5146 12.9782 37.2998 12.8509C36.913 12.7237 36.5263 12.6812 36.0966 12.7237H35.8817V12.554H41.5109V12.7237H41.296C40.8663 12.6812 40.4796 12.7661 40.0499 12.8934C39.835 13.0206 39.7061 13.2328 39.6631 13.4873C39.5772 14.1237 39.5772 14.7601 39.5772 15.3965V21.4634C39.5772 22.1423 39.5772 22.7787 39.6631 23.4575C39.7061 23.712 39.835 23.9242 40.0499 24.0939C40.3936 24.2636 40.7804 24.3484 41.1671 24.306H41.5109V24.4757H35.8817V24.306H36.2255C36.5693 24.2636 36.956 24.1787 37.2998 24.009Z" fill="#C09A5B"/>
<path d="M46.7614 24.4762H42.874V24.4334H43.3866C43.7711 24.4762 44.1556 24.3905 44.4973 24.219C44.7109 24.0904 44.8391 23.8331 44.8818 23.5758C44.9672 22.8898 44.9672 22.161 44.9672 21.475V15.4724C44.9672 14.7864 44.9672 14.1004 44.8818 13.4144C44.8391 13.1571 44.7109 12.9427 44.4973 12.8141C44.1128 12.6855 43.6857 12.5997 43.2585 12.6426H42.9167V12.5997C42.9167 12.5997 45.0954 12.4282 46.7614 12.3425V24.4762ZM55.8176 18.6023C55.8176 19.4598 55.6895 20.3173 55.3904 21.0891C55.1769 21.7751 54.7924 22.4182 54.2798 22.9756C53.8099 23.4472 53.2545 23.7902 52.6138 24.0046C52.0157 24.219 51.4177 24.3476 50.8196 24.3476C50.2643 24.3905 49.4953 24.4334 48.5555 24.4334V24.3905H48.7264C49.6235 24.4334 50.5206 24.2619 51.3749 23.9617C52.1439 23.5758 52.7419 22.9756 53.1264 22.2038C53.639 21.132 53.8526 19.9314 53.8099 18.7309C53.8099 17.7877 53.6817 16.8015 53.4254 15.9012C53.1691 15.0865 52.7419 14.1004 52.272 13.5859C51.8021 13.1142 51.2468 12.7284 50.606 12.514C49.9652 12.3425 49.2817 12.2567 48.5555 12.2139C50.3497 12.2139 51.7594 12.3854 52.7846 12.9427C53.7672 13.4573 54.5361 14.229 55.0487 15.2151C55.5613 16.287 55.8176 17.4447 55.8176 18.6023Z" fill="#C09A5B"/>
<path d="M25.1611 23.1131L26.183 20.8991L27.2049 18.6851L26.183 20.8991L25.1611 23.1131Z" stroke="#B29E75" stroke-width="0.2" stroke-miterlimit="10"/>
<path d="M19.0303 23.4538V18.6851" stroke="#B29E75" stroke-width="0.2" stroke-miterlimit="10"/>
</mask>
<g mask="url(#mask0_196:25)">
<rect x="-0.595703" y="0.9729" width="62.2058" height="42.237" fill="#C09A5B"/>
</g>
</svg>
