<svg width="1258" height="849" viewBox="0 0 1258 849" fill="none" xmlns="http://www.w3.org/2000/svg">
<path d="M612.71 294.598C633.991 269.194 659.363 247.888 688.01 230.679C724.841 207.734 764.946 189.706 806.688 179.052C849.248 167.58 893.446 162.663 938.462 163.483H940.099C1006.39 164.302 1070.24 183.969 1113.61 230.679C1153.72 273.291 1182.37 333.113 1176.64 394.573C1171.73 445.38 1144.72 491.27 1116.07 532.243C1085.79 575.675 1048.14 613.371 1004.76 643.691C958.105 674.831 912.271 683.026 861.526 683.845C782.952 685.484 692.102 662.539 638.083 597.801C634.809 593.704 630.717 588.787 627.443 583.87C608.618 556.827 593.067 526.507 583.245 495.367C561.147 427.351 564.421 354.419 612.71 294.598Z" stroke="white" stroke-width="0.3" stroke-miterlimit="10"/>
<path d="M527.589 260.18C557.054 231.499 592.249 214.29 628.261 198.72C676.551 178.234 726.478 162.664 778.042 153.65C831.242 143.816 884.443 139.719 938.462 141.358H940.917C1021.13 143.816 1097.25 165.942 1144.72 232.319C1179.91 281.487 1206.92 344.586 1200.37 410.143C1194.64 464.228 1169.27 513.396 1140.62 557.648C1104.61 613.371 1055.5 660.081 997.392 693.679C934.37 729.736 877.895 726.458 814.054 714.985C728.933 699.416 632.354 665.817 569.331 593.704C565.239 588.787 561.147 583.871 557.054 578.954C534.137 549.453 514.494 517.494 499.761 483.076C467.023 406.865 461.293 324.918 527.589 260.18Z" stroke="white" stroke-width="0.3" stroke-miterlimit="10"/>
<path d="M442.465 221.666C479.297 191.346 524.313 175.776 569.328 162.664C628.258 144.636 688.825 131.524 750.211 124.149C813.233 116.774 876.255 113.496 939.277 115.955H941.733C1036.68 120.052 1125.89 144.636 1175 229.861C1206.92 283.946 1230.65 351.962 1223.29 420.797C1217.56 478.16 1193 531.425 1164.36 578.135C1121.8 646.97 1061.23 702.694 990.023 738.751C910.631 779.724 843.516 765.793 766.58 740.39C674.911 709.25 573.421 663.36 501.395 583.871C496.485 578.954 491.574 573.218 487.481 567.482C460.472 535.523 436.736 500.285 416.274 463.409C372.895 381.462 358.163 291.321 442.465 221.666Z" stroke="white" stroke-width="0.3" stroke-miterlimit="10"/>
<path d="M357.343 182.33C402.359 149.551 456.378 136.44 509.579 124.967C579.149 110.217 650.356 99.5635 721.563 93.0077C793.588 87.2714 866.432 85.6325 939.276 88.9104H942.55C1051.41 93.8272 1155.35 120.87 1206.1 226.581C1234.74 286.402 1254.39 358.516 1247.02 431.448C1239.65 490.45 1220.01 547.813 1189.73 599.439C1141.44 680.567 1069.41 745.305 983.474 785.459C886.894 830.53 809.139 808.404 719.926 767.43C620.072 721.54 514.49 661.719 433.461 574.855C428.55 569.119 422.821 563.383 417.092 556.827C385.99 522.409 358.162 485.533 333.608 446.199C278.77 356.057 255.034 256.082 357.343 182.33Z" stroke="white" stroke-width="0.3" stroke-miterlimit="10"/>
<path d="M272.223 142.178C325.424 107.76 388.446 96.2874 450.65 87.2732C530.86 74.9812 611.889 66.7865 694.554 61.8697C777.22 56.9529 858.248 57.7723 940.914 61.8697H944.188C1067.78 68.4254 1187.27 96.2874 1237.2 222.486C1265.85 291.321 1277.31 366.712 1271.58 441.284C1264.21 503.563 1245.39 564.204 1214.28 619.108C1161.9 713.347 1072.69 786.28 976.108 829.712C863.159 878.88 773.127 848.559 672.455 792.016C565.236 731.375 454.742 657.623 364.71 563.384C358.981 557.648 353.252 551.092 346.704 544.537C311.51 507.661 278.771 467.507 249.306 425.714C184.647 329.836 151.908 221.666 272.223 142.178Z" stroke="white" stroke-width="0.3" stroke-miterlimit="10"/>
<path d="M187.921 102.843C248.488 65.9671 321.332 56.953 391.72 49.5778C482.571 39.7441 574.239 34.0079 665.908 31.5495C757.577 29.091 849.246 29.9105 940.915 34.8273H945.007C1082.51 42.2025 1218.38 72.5229 1268.3 218.388C1293.68 292.96 1302.68 372.448 1295.31 451.117C1288.76 516.675 1269.94 580.594 1238.84 638.776C1181.55 746.126 1080.05 827.254 969.561 873.963C840.243 928.048 737.934 889.533 625.803 816.601C509.58 742.029 395.813 655.165 297.596 552.732L277.953 532.245C238.666 492.91 201.835 450.298 167.459 406.047C90.5231 303.613 47.9626 187.249 187.921 102.843Z" stroke="white" stroke-width="0.3" stroke-miterlimit="10"/>
<path d="M941.731 8.59894L945.823 8.59894C1098.06 17.6131 1251.11 48.7529 1298.58 215.925C1337.87 353.595 1328.87 531.42 1262.57 659.257C1200.37 779.719 1084.96 869.041 961.374 919.029C815.686 978.03 701.1 930.501 577.511 841.999C453.104 752.677 336.062 652.701 228.843 542.893C113.438 425.709 -140.288 200.355 102.798 63.5033C171.55 24.9883 253.397 18.4326 332.788 12.6963C535.769 -1.23469 738.75 -2.87362 941.731 8.59894Z" stroke="white" stroke-width="0.3" stroke-miterlimit="10"/>
</svg>
