<svg width="142" height="102" viewBox="0 0 142 102" fill="none" xmlns="http://www.w3.org/2000/svg">
<mask id="mask0_199:358" style="mask-type:alpha" maskUnits="userSpaceOnUse" x="0" y="0" width="142" height="102">
<path d="M65.83 32.0966C68.0853 29.406 70.7743 27.1493 73.8103 25.3266C77.7138 22.8964 81.9642 20.9869 86.3881 19.8586C90.8987 18.6434 95.5828 18.1227 100.354 18.2095H100.527C107.553 18.2963 114.319 20.3793 118.917 25.3266C123.167 29.84 126.203 36.176 125.596 42.6856C125.075 48.0669 122.213 52.9274 119.177 57.2671C115.967 61.8672 111.977 65.8598 107.38 69.0712C102.436 72.3694 97.5779 73.2373 92.1999 73.3241C83.8725 73.4977 74.2441 71.0675 68.519 64.2107C68.172 63.7767 67.7383 63.2559 67.3914 62.7352C65.3963 59.8709 63.7481 56.6595 62.7072 53.3613C60.3652 46.1574 60.7121 38.4326 65.83 32.0966Z" stroke="white" stroke-width="0.2" stroke-miterlimit="10"/>
<path d="M56.8086 28.4506C59.9313 25.4127 63.6613 23.5901 67.478 21.941C72.5958 19.7711 77.8872 18.122 83.352 17.1672C88.9903 16.1257 94.6286 15.6917 100.354 15.8653H100.614C109.115 16.1257 117.182 18.4692 122.213 25.4995C125.943 30.7072 128.805 37.3904 128.111 44.334C127.504 50.0625 124.815 55.2701 121.779 59.9571C117.962 65.8591 112.758 70.8064 106.599 74.365C99.9199 78.184 93.9346 77.8368 87.1687 76.6217C78.1474 74.9726 67.9117 71.414 61.2325 63.776C60.7988 63.2553 60.3651 62.7345 59.9313 62.2137C57.5025 59.0891 55.4207 55.7041 53.8593 52.0587C50.3896 43.9868 49.7824 35.3073 56.8086 28.4506Z" stroke="white" stroke-width="0.2" stroke-miterlimit="10"/>
<path d="M47.7876 24.3719C51.691 21.1604 56.4619 19.5113 61.2328 18.1226C67.4783 16.2131 73.8972 14.8244 80.403 14.0433C87.0822 13.2621 93.7614 12.9149 100.441 13.1753H100.701C110.763 13.6093 120.218 16.2131 125.423 25.2398C128.806 30.9683 131.321 38.1722 130.54 45.463C129.933 51.5386 127.331 57.1803 124.295 62.1276C119.784 69.4183 113.365 75.3204 105.819 79.1394C97.4046 83.4791 90.2917 82.0036 82.1378 79.3129C72.4226 76.0147 61.6665 71.1542 54.0331 62.7351C53.5126 62.2144 52.9922 61.6068 52.5585 60.9992C49.6959 57.6143 47.1804 53.8821 45.0118 49.9763C40.4144 41.2968 38.8531 31.7494 47.7876 24.3719Z" stroke="white" stroke-width="0.2" stroke-miterlimit="10"/>
<path d="M38.7665 20.2063C43.5373 16.7345 49.2624 15.3458 54.9007 14.1307C62.2738 12.5684 69.8205 11.44 77.3671 10.7457C85.0005 10.1381 92.7206 9.96453 100.441 10.3117H100.788C112.325 10.8325 123.341 13.6967 128.719 24.8932C131.755 31.2293 133.837 38.8672 133.056 46.5919C132.275 52.8411 130.194 58.9168 126.984 64.3849C121.866 72.9775 114.233 79.8343 105.125 84.0873C94.8892 88.861 86.6486 86.5175 77.1936 82.1778C66.611 77.3173 55.4211 70.9813 46.8336 61.781C46.3131 61.1734 45.7059 60.5659 45.0987 59.8715C41.8025 56.2261 38.8532 52.3204 36.2509 48.1542C30.4391 38.6068 27.9236 28.0178 38.7665 20.2063Z" stroke="white" stroke-width="0.2" stroke-miterlimit="10"/>
<path d="M29.7449 15.9535C35.3831 12.3081 42.0624 11.093 48.6548 10.1383C57.1556 8.83635 65.7432 7.9684 74.5042 7.44763C83.2653 6.92686 91.8528 7.01366 100.614 7.44763H100.961C114.059 8.14199 126.724 11.093 132.015 24.4594C135.051 31.7502 136.265 39.7353 135.658 47.6336C134.877 54.23 132.882 60.6528 129.586 66.4681C124.034 76.4495 114.579 84.1742 104.344 88.7743C92.3733 93.982 82.8316 90.7706 72.1622 84.7818C60.7988 78.3589 49.0885 70.5474 39.5468 60.566C38.9396 59.9585 38.3324 59.2641 37.6385 58.5697C33.9085 54.664 30.4388 50.411 27.316 45.9845C20.4633 35.8295 16.9936 24.3726 29.7449 15.9535Z" stroke="white" stroke-width="0.2" stroke-miterlimit="10"/>
<path d="M20.8105 11.7871C27.2295 7.88132 34.9496 6.92657 42.4095 6.14542C52.038 5.10388 61.7532 4.49632 71.4684 4.23593C81.1836 3.97555 90.8988 4.06234 100.614 4.58311H101.048C115.621 5.36427 130.02 8.57567 135.311 24.0251C138 31.9235 138.954 40.3426 138.174 48.6749C137.48 55.6184 135.485 62.3884 132.189 68.5509C126.116 79.921 115.36 88.5137 103.65 93.461C89.9447 99.1894 79.1018 95.1101 67.218 87.3853C54.9005 79.487 42.8432 70.2868 32.434 59.4374L30.3522 57.2675C26.1885 53.1014 22.2851 48.5881 18.6419 43.9012C10.4881 33.0518 5.97742 20.7269 20.8105 11.7871Z" stroke="white" stroke-width="0.2" stroke-miterlimit="10"/>
<path d="M100.7 1.80485H101.134C117.268 2.75959 133.489 6.05779 138.52 23.7639C142.684 38.3454 141.73 57.1799 134.704 70.7199C128.111 83.4787 115.88 92.9394 102.782 98.2338C87.3419 104.483 75.1979 99.449 62.0997 90.0751C48.9148 80.6145 36.5105 70.0255 25.1472 58.395C12.9164 45.9834 -13.9739 22.1148 11.7887 7.6201C19.0752 3.54074 27.7495 2.84639 36.1635 2.23882C57.6758 0.763311 79.1881 0.589722 100.7 1.80485Z" stroke="white" stroke-width="0.2" stroke-miterlimit="10"/>
</mask>
<g mask="url(#mask0_199:358)">
<rect x="-2.78711" y="0.936523" width="147.607" height="100.161" fill="#C09A5B"/>
</g>
</svg>
